<ttFont>
          <CharString index="0">
            rcurveline
            71 25 178 96 45 33 27 callsubr
            -56 -29 -118 -54 -61 -16 3 2 rcurveline
            40 92 71 115 53 69 -98 84 rcurveline
            -19 -23 -17 -20 -15 -23 -66 101 -98 callsubr
            return
          </CharString>
          <CharString index="1">
            27 -29 rmoveto
            47 104 61 96 67 85 47 -33 42 -36 41 -45 -16 -31 -15 -27 -15 -27 114 -104 rcurveline
            127 241 76 219 36 183 -125 108 rcurveline
            -6 -40 -8 -41 -10 -41 -74 67 rcurveline
            -76 -57 -80 -74 -80 -85 -65 36 rcurveline
            -86 -108 60 -34 -64 -80 -59 -84 -48 -91 rlinecurve
            371 286 rmoveto
            68 73 65 61 56 44 -23 -89 -32 -91 -35 -87 return
          </CharString>
          <CharString index="2">
            53 callsubr
            88 24 51 33 43 33 77 -86 -107 callsubr
            return
          </CharString>
          <CharString index="3">
            -106 callsubr
            -30 32 -33 30 -36 27 rrcurveto
            return
          </CharString>
          <CharString index="4">
            -34 92 rmoveto
            142 -119 -86 callsubr
            -159 136 rcurveline
            -40 callsubr
            134 17 -84 callsubr
            return
          </CharString>
          <CharString index="5">
            -18 84 rmoveto
            148 -136 -12 callsubr
            rlinecurve
            -138 50 -11 callsubr
            rlinecurve
            -46 callsubr
            45 135 rcurveline
            -72 76 -73 53 -89 45 -33 callsubr
            return
          </CharString>
          <CharString index="6">
            83 -27 rmoveto
            83 35 42 31 37 36 88 -98 rcurveline
            71 25 178 97 44 32 3 callsubr
            -56 -32 -122 -51 -58 -16 4 2 rcurveline
            40 92 58 101 55 80 -107 14 callsubr
            rrcurveto
            -118 -94 -98 -24 -3 hhcurveto
            23 95 55 116 99 133 -103 79 rcurveline
            -117 -159 -78 -142 -19 -151 rrcurveto
            return
          </CharString>
          <CharString index="7">
            vstem
            47 -29 rmoveto
            39 93 41 83 45 79 57 -112 55 -88 65 -84 133 86 rcurveline
            -60 64 -45 60 -39 61 137 53 113 71 73 97 -78 172 -19 callsubr
            42 -20 callsubr
            278 218 rmoveto
            43 68 46 63 49 63 -86 70 rcurveline
            92 -17 95 -28 65 -35 -69 -72 -130 -72 -105 -40 rrcurveto
            return
          </CharString>
          <CharString index="8">
            60 8 rmoveto
            92 -20 103 -17 125 -3 41 129 rcurveline
            -116 4 -93 11 -96 21 23 47 24 45 25 42 62 -16 57 -11 105 -19 45 127 rcurveline
            -83 8 -52 9 -62 14 28 43 28 38 31 37 -86 71 rcurveline
            112 -21 135 -41 96 -46 57 146 rcurveline
            -169 72 -169 25 -161 5 return
          </CharString>
          <CharString index="9">
            -44 callsubr
            140 29 -51 callsubr
            -8 -40 -23 -51 -63 -80 -64 -43 -68 -19 rrcurveto
            return
          </CharString>
          <CharString index="10">
            -99 callsubr
            -47 -124 rcurveline
            -23 callsubr
            return
          </CharString>
          <CharString index="11">
            -20 hstem
            54 callsubr
            vstem
            -105 callsubr
            return
          </CharString>
          <CharString index="12">
            76 -25 rmoveto
            68 24 70 27 59 31 113 -107 rcurveline
            104 262 112 214 105 127 -110 107 rcurveline
            -86 -104 -97 -182 -86 -176 rrcurveto
            2 vlineto
            -53 -21 -90 -26 -59 -13 64 150 100 176 101 122 -108 107 rcurveline
            -132 -172 -117 -206 -84 -221 rrcurveto
            return
          </CharString>
          <CharString index="13">
            -132 -79 -162 -42 -142 -8 -5 callsubr
            22 -39 callsubr
            -84 -27 -98 -59 -72 -105 rlinecurve
            -56 -86 -19 -96 -70 vvcurveto
            204 202 rmoveto
            32 53 60 53 59 32 rrcurveto
            -97 -83 -41 -68 vhcurveto
            return
          </CharString>
          <CharString index="14">
            -20 hstem
            -50 676 vstem
            -101 callsubr
            return
          </CharString>
          <CharString index="15">
            rmoveto
            77 40 33 10 80 27 25 -57 17 -54 19 -71 99 25 rcurveline
            -16 89 -11 47 -21 80 -119 61 rcurveline
            -101 -40 -43 -20 -87 -48 rrcurveto
            endchar
          </CharString>
          <CharString index="16">
            vstem
            27 131 rmoveto
            74 47 23 39 32 52 31 59 rlinecurve
            36 1 41 3 47 4 -57 -84 -45 -88 -37 -85 106 -106 rcurveline
            116 40 148 73 69 45 27 callsubr
            -56 -35 -105 -42 -84 -29 27 71 37 80 51 80 30 6 29 7 27 8 -28 119 rcurveline
            -113 -30 -52 -10 -120 -13 7 19 4 16 8 32 -93 72 rcurveline
            -41 -40 -50 -55 -29 -40 18 -27 19 -25 19 -21 -56 -69 -45 -52 -61 -67 rrcurveto
            return
          </CharString>
          <CharString index="17">
            34 -27 -87 callsubr
            return
          </CharString>
          <CharString index="18">
            27 530 -96 callsubr
            return
          </CharString>
          <CharString index="19">
            hintmask 10100000
            hintmask 11000000
            -103 callsubr
            return
          </CharString>
          <CharString index="20">
            rmoveto
            116 40 139 73 -1 callsubr
            -73 -39 -79 -39 -93 -28 -69 callsubr
            return
          </CharString>
          <CharString index="21">
            108 20 84 49 61 71 rlinecurve
            48 -55 71 18 55 23 78 32 rlinecurve
            -22 101 -60 -11 -52 -6 -51 -3 rlinecurve
            29 57 18 63 11 68 return
          </CharString>
          <CharString index="22">
            11 540 -93 callsubr
            return
          </CharString>
          <CharString index="23">
            rmoveto
            3 59 14 58 43 61 43 59 71 59 77 11 -3 -73 -49 -87 -40 -48 -45 -51 -57 -35 -57 -13 rrcurveto
            return
          </CharString>
          <CharString index="24">
            256 -96 -78 callsubr
            endchar
          </CharString>
          <CharString index="25">
            257 -96 rmoveto
            -15 15 19 -8 22 hhcurveto
            44 35 35 -74 callsubr
            -15 hvcurveto
            endchar
          </CharString>
          <CharString index="26">
            hintmask 11101000
            -21 callsubr
            hintmask 11110000
            -94 callsubr
            return
          </CharString>
          <CharString index="27">
            52 -29 rmoveto
            88 207 129 230 128 177 -102 104 rcurveline
            -155 -207 -110 -196 -93 -209 rrcurveto
            return
          </CharString>
          <CharString index="28">
            rmoveto
            78 35 37 15 78 21 -77 callsubr
          </CharString>
          <CharString index="29">
            -65 callsubr
            -38 callsubr
            0 callsubr
            hvcurveto
            return
          </CharString>
          <CharString index="30">
            33 -59 25 -53 27 -64 99 25 rcurveline
            -24 88 -19 56 -32 63 -119 61 rcurveline
            -101 -32 -42 -19 -88 -48 rrcurveto
            endchar
          </CharString>
          <CharString index="31">
            -51 41 -42 52 -61 callsubr
            vhcurveto
            return
          </CharString>
          <CharString index="32">
            76 callsubr
            21 69 26 72 31 73 85 59 68 38 91 43 -70 callsubr
            -86 -46 -58 -40 -63 -50 21 39 23 36 -2 callsubr
            return
          </CharString>
          <CharString index="33">
            78 callsubr
            35 -44 -44 -35 -35 34 callsubr
            return
          </CharString>
          <CharString index="34">
            46 -29 rmoveto
            56 143 79 158 84 141 7 -137 12 -144 23 -169 133 27 rcurveline
            89 211 107 206 117 164 -102 94 rcurveline
            -100 -137 -77 -137 -64 -135 -11 121 -6 110 -1 120 -99 97 rcurveline
            -127 -167 -154 -260 -82 -200 rrcurveto
            return
          </CharString>
          <CharString index="35">
            rmoveto
            -15 15 -60 callsubr
            36 -74 callsubr
            -16 hvcurveto
            return
          </CharString>
          <CharString index="36">
            rmoveto
            105 28 85 30 95 43 -51 119 rcurveline
            -91 -51 -80 -32 -102 55 callsubr
          </CharString>
          <CharString index="37">
            -16 -71 -57 -99 -42 callsubr
            -66 -31 -85 -29 52 72 41 88 23 96 37 callsubr
            return
          </CharString>
          <CharString index="38">
            37 96 75 135 64 88 -99 73 rcurveline
            -96 -119 -117 -219 -37 -101 rrcurveto
            return
          </CharString>
          <CharString index="39">
            3 28 rmoveto
            -61 -31 -44 -30 -44 -39 6 -165 rcurveline
            91 -32 133 -22 92 -3 83 88 47 85 38 170 49 -54 rcurveline
            71 24 125 79 44 33 27 callsubr
            -51 -30 -112 -36 -64 -19 40 89 57 95 51 77 -106 83 rcurveline
            -46 -64 -70 -129 -38 -75 return
          </CharString>
          <CharString index="40">
            -65 callsubr
            hvcurveto
            hintmask 01011000
            -38 callsubr
            vhcurveto
            hintmask 00111000
            0 callsubr
            vhcurveto
            hintmask 10011000
            -82 callsubr
          </CharString>
          <CharString index="41">
            13 66 rmoveto
            124 -107 32 92 29 73 47 72 rlinecurve
            144 88 125 119 121 153 -112 107 rcurveline
            -84 -120 -97 -105 -97 -85 3 91 14 81 21 83 -134 123 rcurveline
            -37 -161 -16 -163 16 -137 -53 -86 -11 -32 -35 -86 rrcurveto
            return
          </CharString>
          <CharString index="42">
            rmoveto
            -15 16 -37 callsubr
            return
          </CharString>
          <CharString index="43">
            rmoveto
            85 59 74 53 77 72 -97 94 rcurveline
            -60 -67 -66 -66 -88 -68 rrcurveto
            endchar
          </CharString>
          <CharString index="44">
            rmoveto
            27 -26 39 callsubr
            rlinecurve
            -21 101 61 callsubr
            rlinecurve
            23 callsubr
            -70 -89 -86 -142 -54 -107 -68 -137 -56 -144 -39 -120 24 callsubr
            rrcurveto
            return
          </CharString>
          <CharString index="45">
            rmoveto
            118 -29 148 -52 112 -48 46 111 rcurveline
            -4 callsubr
            rrcurveto
            return
          </CharString>
          <CharString index="46">
            52 41 42 51 52 -41 41 -52 -52 -41 -41 -52 return
          </CharString>
          <CharString index="47">
            19 -8 22 hhcurveto
            44 35 return
          </CharString>
          <CharString index="48">
            111 hstem
            85 126 729 123 vstem
            111 90 rmoveto
            -148 53 132 -114 212 hhcurveto
            279 276 239 322 220 -168 160 -259 -120 -142 -35 -56 -99 hvcurveto
            35 -98 rlineto
            48 100 121 30 107 hhcurveto
            176 126 -111 -163 -250 -223 -195 -207 -208 -91 141 153 104 37 107 60 76 hvcurveto
            -118 44 rlineto
            -69 -92 -36 -114 -112 vvcurveto
            -54 9 -52 17 -50 vhcurveto
            return
          </CharString>
          <CharString index="49">
            -3 536 28 callsubr
            647 -88 callsubr
            return
          </CharString>
          <CharString index="50">
            119 hstem
            -66 727 -100 callsubr
            return
          </CharString>
          <CharString index="51">
            -56 -96 -77 -20 -54 -8 9 77 72 133 108 152 -104 79 rcurveline
            -128 -173 -89 -180 -8 -117 rrcurveto
            10 -215 rmoveto
            63 57 96 54 95 39 -28 -88 -37 -53 -37 -32 -43 1 -62 11 -47 11 rrcurveto
            return
          </CharString>
          <CharString index="52">
            22 callsubr
            599 -81 callsubr
            return
          </CharString>
          <CharString index="53">
            -76 callsubr
            endchar
          </CharString>
          <CharString index="54">
            rmoveto
            98 43 -36 96 -36 84 -51 92 rlinecurve
            -113 -62 51 -75 43 -75 44 -103 rlinecurve
            endchar
          </CharString>
          <CharString index="55">
            rmoveto
            72 75 -67 77 -66 63 -80 69 rlinecurve
            -80 -91 76 -56 73 -61 72 -76 rlinecurve
            endchar
          </CharString>
          <CharString index="56">
            rmoveto
            149 95 122 139 13 vhcurveto
            -8 -51 return
          </CharString>
          <CharString index="57">
            rmoveto
            -6 15 15 -3 17 hhcurveto
            64 52 52 64 67 -52 51 -64 -43 callsubr
            21 -21 -27 -25 -21 -21 -25 hvcurveto
            endchar
          </CharString>
          <CharString index="58">
            rmoveto
            226 27 81 180 143 263 104 144 rlinecurve
            -104 104 -133 -176 -120 -228 -86 -193 rlinecurve
            -16 56 -10 46 -8 51 -132 -26 rcurveline
            7 -64 15 -83 33 -101 rrcurveto
            return
          </CharString>
          <CharString index="59">
            -20 205 -20 hstem
            -86 665 vstem
            33 -27 rmoveto
            31 88 33 86 37 84 7 -55 13 -56 21 -59 -32 callsubr
            -107 -76 -87 -73 -84 -79 59 125 63 112 67 99 -103 77 rcurveline
            -133 -208 -127 -249 -77 -207 rrcurveto
            return
          </CharString>
          <CharString index="60">
            376 rmoveto
            -12 36 36 -5 35 hhcurveto
            84 76 32 65 60 hvcurveto
            -27 85 -17 9 -16 8 -16 7 rlinecurve
            51 13 49 26 52 44 -31 108 rcurveline
            24 -43 -59 16 -64 hhcurveto
            -15 -16 1 -3 -13 hvcurveto
            -45 -92 rlineto
            1 15 15 1 17 hhcurveto
            44 39 -8 -13 36 hvcurveto
            -33 -47 -55 -14 -73 hhcurveto
            -44 -78 47 -15 55 -26 35 -21 rlinecurve
            -27 -33 -43 -9 -39 hhcurveto
            -39 -36 8 8 -31 hvcurveto
            return
          </CharString>
          <CharString index="61">
            13 184 127 193 133 69 75 -45 45 -36 78 -70 return
          </CharString>
          <CharString index="62">
            rmoveto
            91 -19 73 -11 126 -11 43 139 rcurveline
            -109 11 -76 10 -81 17 89 164 106 171 80 110 -103 104 rcurveline
            -112 -152 -153 -229 -94 -195 rrcurveto
            return
          </CharString>
          <CharString index="63">
            rcurveline
            -243 -21 -129 -210 -211 vvcurveto
            return
          </CharString>
          <CharString index="64">
            -68 -50 -50 -68 -48 29 -41 42 -18 hvcurveto
            46 61 rmoveto
            -27 -21 21 25 27 21 21 27 25 return
          </CharString>
          <CharString index="65">
            -80 -96 124 -88 rcurveline
            71 24 184 89 -1 callsubr
            -76 -39 return
          </CharString>
          <CharString index="66">
            rmoveto
            13 -17 14 -16 15 -17 78 59 rcurveline
            -39 59 -28 48 -31 59 57 37 55 29 77 37 -50 87 rcurveline
            -88 -29 -64 -28 -68 -40 -57 -100 rcurveline
            42 -66 35 -51 39 -51 rrcurveto
            return
          </CharString>
          <CharString index="67">
            -18 callsubr
            -56 -87 -17 -103 -67 vvcurveto
            return
          </CharString>
          <CharString index="68">
            0 27 hhcurveto
            129 100 59 139 33 hvcurveto
            -169 140 return
          </CharString>
          <CharString index="69">
            44 -35 36 -44 -44 -36 -36 -44 return
          </CharString>
          <CharString index="70">
            -60 callsubr
            35 44 return
          </CharString>
          <CharString index="71">
            hstem
            -77 795 vstem
            33 -29 rmoveto
            56 111 49 93 48 81 56 -119 54 -96 68 -99 134 86 rcurveline
            -71 93 -44 65 -37 65 138 74 106 69 128 123 -93 108 rcurveline
            -125 -117 -121 -85 -145 -89 60 97 56 79 59 73 -103 106 rcurveline
            -134 -177 -105 -164 -144 -275 rrcurveto
            return
          </CharString>
          <CharString index="72">
            -27 callsubr
            rlineto
            hintmask 00110000
            -13 callsubr
            return
          </CharString>
          <CharString index="73">
            -28 callsubr
            rlineto
            hintmask 00110000
            -14 callsubr
            return
          </CharString>
          <CharString index="74">
            -280 -131 -132 -222 -24 -258 rrcurveto
            return
          </CharString>
          <CharString index="75">
            125 -88 rcurveline
            90 43 109 61 80 54 27 callsubr
            -80 -41 -74 -32 -91 -31 -21 43 -17 35 -13 39 81 59 90 58 113 72 -102 95 rcurveline
            return
          </CharString>
          <CharString index="76">
            rmoveto
            -37 -88 -39 -79 -47 -65 98 -54 rcurveline
            56 64 48 70 43 79 rrcurveto
            endchar
          </CharString>
          <CharString index="77">
            rmoveto
            115 -40 11 39 15 46 16 48 rlinecurve
            47 -17 44 -18 40 -17 45 111 rcurveline
            -40 19 -46 16 -48 19 17 45 18 43 17 39 -111 45 rcurveline
            -19 -40 -17 -45 -19 -48 -47 15 -44 13 -39 11 -45 -114 rcurveline
            41 -11 45 -12 47 -15 -16 -47 -15 -45 -12 -40 rrcurveto
            return
          </CharString>
          <CharString index="78">
            rmoveto
            65 129 69 111 73 104 -83 86 rcurveline
            -72 -25 -61 -28 -65 -35 34 -86 rcurveline
            25 13 27 13 27 12 -48 -69 -46 -72 -39 -69 rrcurveto
            return
          </CharString>
          <CharString index="79">
            rmoveto
            15 -11 15 -8 16 -5 rrcurveto
            36 69 13 11 35 hvcurveto
            -12 94 -80 -6 return
          </CharString>
          <CharString index="80">
            rmoveto
            16 -11 16 -8 16 -5 rrcurveto
            35 72 14 11 32 hvcurveto
            -11 93 -80 -5 return
          </CharString>
          <CharString index="81">
            -20 69 callsubr
            20 71 26 69 29 72 88 61 68 36 91 45 -70 callsubr
            -85 -45 -62 -39 -67 -51 return
          </CharString>
          <CharString index="82">
            rmoveto
            58 -24 97 -27 77 -8 49 103 rcurveline
            -64 8 -50 10 -44 15 82 50 80 2 87 109 -33 105 rcurveline
            25 -52 -60 11 -47 hhcurveto
            -17 -16 -1 -2 -16 hvcurveto
            -44 -91 rlineto
            1 15 17 1 15 hhcurveto
            33 39 -5 -11 36 hvcurveto
            -67 -56 -108 -24 -99 -83 rrcurveto
            endchar
          </CharString>
          <CharString index="83">
            rmoveto
            94 35 58 29 69 40 57 100 rcurveline
            -54 86 -41 52 -64 73 -77 -59 rcurveline
            37 -59 30 -45 29 -56 -55 -37 -52 -31 -81 -41 rrcurveto
            return
          </CharString>
          <CharString index="84">
            32 40 -4 -7 43 hvcurveto
            -98 -119 -122 -196 -64 -146 rrcurveto
            return
          </CharString>
          <CharString index="85">
            -22 8 -19 15 return
          </CharString>
          <CharString index="86">
            89 -27 rmoveto
            170 8 184 74 121 76 3 callsubr
            return
          </CharString>
          <CharString index="87">
            -4 -8 46 hvcurveto
            -126 -150 -82 -138 -91 -200 rrcurveto
            return
          </CharString>
          <CharString index="88">
            rcurveline
            -142 62 -130 21 -160 5 -43 -119 rcurveline
            37 return
          </CharString>
          <CharString index="89">
            -117 -16 -112 -74 -59 -97 rrcurveto
            return
          </CharString>
          <CharString index="90">
            -34 callsubr
            hintmask 01010000
            29 callsubr
          </CharString>
          <CharString index="91">
            -35 callsubr
            hintmask 01010000
            30 callsubr
          </CharString>
          <CharString index="92">
            55 13 65 41 63 vhcurveto
            47 71 53 37 56 24 -9 -31 -28 -44 -31 -39 126 -80 rcurveline
            27 37 53 115 8 36 -160 119 rcurveline
            -84 -26 -110 -61 -72 -104 rrcurveto
            -69 -95 -3 -89 -68 vvcurveto
            endchar
          </CharString>
          <CharString index="93">
            -50 11 -57 89 -64 19 rrcurveto
            9 callsubr
            rlineto
            return
          </CharString>
          <CharString index="94">
            -43 11 -64 89 -64 19 rrcurveto
            8 callsubr
            rlineto
            return
          </CharString>
          <CharString index="95">
            256 48 136 150 85 240 return
          </CharString>
          <CharString index="96">
            -74 -196 -131 -114 -128 -35 return
          </CharString>
          <CharString index="97">
            71 callsubr
            23 hhcurveto
            11 callsubr
            -23 72 callsubr
            return
          </CharString>
          <CharString index="98">
            rmoveto
            -6 15 15 -3 17 hhcurveto
            65 51 52 64 67 -51 51 -65 -43 callsubr
            22 -21 -27 -25 -22 -21 -25 hvcurveto
            endchar
          </CharString>
          <CharString index="99">
            103 52 callsubr
            -57 709 vstem
            71 -26 rmoveto
            274 50 240 165 67 283 -59 134 21 callsubr
            43 -4 -7 47 hvcurveto
            return
          </CharString>
          <CharString index="100">
            27 172 138 192 169 83 -19 -65 -35 -68 -37 -64 116 -64 rcurveline
            45 64 61 108 24 80 -190 137 rcurveline
            -266 -112 -156 -260 -56 -241 rrcurveto
            endchar
          </CharString>
          <CharString index="101">
            -49 -15 -55 -9 -52 -5 14 -81 rcurveline
            87 3 86 9 75 23 35 75 rcurveline
            -27 25 -23 22 -24 19 return
          </CharString>
          <CharString index="102">
            3 36 6 34 11 27 rrcurveto
            -7 25 return
          </CharString>
          <CharString index="103">
            -110 48 -156 55 -112 29 return
          </CharString>
          <CharString index="104">
            69 85 45 61 62 94 -125 79 rcurveline
            return
          </CharString>
          <CharString index="105">
            23 31 -101 73 rcurveline
            -88 -109 -106 -204 -48 -164 rrcurveto
            return
          </CharString>
          <CharString index="106">
            69 45 3 callsubr
            return
          </CharString>
          <CharString index="107">
            -22 callsubr
            -15 return
          </CharString>
          <CharString index="108">
            70 14 136 44 79 42 27 callsubr
            -77 -24 -119 -21 -48 -3 71 80 60 86 53 88 -115 75 rcurveline
            -103 -180 -134 -167 -87 -40 19 86 return
          </CharString>
          <CharString index="109">
            rmoveto
            -33 -66 -33 -53 -45 -69 96 -60 rcurveline
            -3 callsubr
            return
          </CharString>
          <CharString index="110">
            -21 101 rcurveline
            return
          </CharString>
          <CharString index="111">
            rmoveto
            100 33 44 18 87 48 -48 88 rcurveline
            -77 -37 -39 -13 -77 -21 -35 59 -23 53 -27 65 -99 -25 rcurveline
            24 -90 19 -53 32 -64 rrcurveto
            endchar
          </CharString>
          <CharString index="112">
            rmoveto
            100 41 44 20 87 47 -48 88 rcurveline
            -77 -40 -33 -10 -81 -27 -25 57 -16 54 -19 72 -99 -25 rcurveline
            16 -90 10 -45 22 -81 rrcurveto
            endchar
          </CharString>
          <CharString index="113">
            rmoveto
            61 93 42 63 56 99 -114 64 rcurveline
            -50 -96 -42 -69 -59 -96 rrcurveto
            return
          </CharString>
          <CharString index="114">
            rmoveto
            -3 callsubr
            -50 -103 -36 -64 -61 -92 rrcurveto
            return
          </CharString>
          <CharString index="115">
            -37 -69 -14 -11 -32 hvcurveto
            10 -94 81 5 return
          </CharString>
          <CharString index="116">
            -36 -70 -13 -11 -32 hvcurveto
            10 -95 81 6 return
          </CharString>
          <CharString index="117">
            rmoveto
            50 103 36 64 61 92 -96 60 rcurveline
            -69 -85 -45 -61 -62 -94 rrcurveto
            return
          </CharString>
          <CharString index="118">
            45 36 36 45 45 -36 36 -45 -45 -36 -36 -45 return
          </CharString>
          <CharString index="119">
            216 246 170 164 225 198 return
          </CharString>
          <CharString index="120">
            -225 -198 -173 -169 -221 -237 return
          </CharString>
          <CharString index="121">
            83 rcurveline
            -47 -65 -50 -91 -37 -76 return
          </CharString>
          <CharString index="122">
            rmoveto
            67 -72 12 callsubr
            rlinecurve
            -59 68 13 callsubr
            rlinecurve
            return
          </CharString>
          <CharString index="123">
            20 -16 13 -13 15 -17 rlinecurve
            -6 callsubr
            return
          </CharString>
          <CharString index="124">
            -5 rmoveto
            12 callsubr
            -59 68 rcurveline
            13 callsubr
            rrcurveto
            return
          </CharString>
          <CharString index="125">
            158 -62 159 -138 -21 hstemhm
            return
          </CharString>
          <CharString index="126">
            rmoveto
            -34 -68 -35 -58 -42 -68 106 -58 rcurveline
            68 84 50 74 51 91 -130 77 rcurveline
            -11 -27 -12 -24 -11 -23 rrcurveto
            endchar
          </CharString>
          <CharString index="127">
            -84 callsubr
            endchar
          </CharString>
          <CharString index="128">
            rcurveline
            -141 61 -147 20 -160 7 -43 -119 rcurveline
            35 return
          </CharString>
          <CharString index="129">
            -51 26 callsubr
            74 callsubr
            -142 return
          </CharString>
          <CharString index="130">
            40 97 80 135 65 89 -99 73 rcurveline
            return
          </CharString>
          <CharString index="131">
            116 -73 rcurveline
            33 105 33 96 47 101 return
          </CharString>
          <CharString index="132">
            18 -32 129 487 124 return
          </CharString>
          <CharString index="133">
            33 callsubr
            241 -20 return
          </CharString>
          <CharString index="134">
            -22 101 rcurveline
            return
          </CharString>
          <CharString index="135">
            -20 hstemhm
            -34 134 -134 return
          </CharString>
          <CharString index="136">
            36 -8 46 -52 42 -34 rrcurveto
            endchar
          </CharString>
          <CharString index="137">
            30 -8 48 -52 44 -34 rrcurveto
            endchar
          </CharString>
          <CharString index="138">
            159 98 158 return
          </CharString>
          <CharString index="139">
            158 98 159 return
          </CharString>
          <CharString index="140">
            -27 130 90 97 return
          </CharString>
          <CharString index="141">
            -44 -22 callsubr
            return
          </CharString>
          <CharString index="142">
            65 122 85 3 callsubr
            return
          </CharString>
          <CharString index="143">
            159 -148 -20 105 77 callsubr
            return
          </CharString>
          <CharString index="144">
            -121 95 rcurveline
            return
          </CharString>
          <CharString index="145">
            20 rmoveto
            43 -8 45 -8 47 -11 -15 -28 -11 -26 -11 -27 return
          </CharString>
          <CharString index="146">
            117 40 120 64 69 45 return
          </CharString>
          <CharString index="147">
            115 0 68 callsubr
            return
          </CharString>
          <CharString index="148">
            rmoveto
            31 55 61 51 68 32 rrcurveto
            -97 -93 -41 -67 vhcurveto
            return
          </CharString>
          <CharString index="149">
            rmoveto
            145 8 163 35 callsubr
            return
          </CharString>
          <CharString index="150">
            64 -44 -56 -42 -59 -39 -63 rlinecurve
            -27 7 -25 5 -24 return
          </CharString>
          <CharString index="151">
            -48 -182 -164 -135 -175 -50 rrcurveto
            endchar
          </CharString>
          <CharString index="152">
            -27 783 -231 40 callsubr
            -81 return
          </CharString>
          <CharString index="153">
            35 27 27 35 33 28 -27 -35 -35 -28 -27 -33 return
          </CharString>
          <CharString index="154">
            47 37 38 46 48 -37 37 -47 -47 -37 -37 -48 return
          </CharString>
          <CharString index="155">
            47 112 rcurveline
            -112 49 -106 37 -113 28 return
          </CharString>
          <CharString index="156">
            72 58 59 72 73 -58 58 -72 -75 -57 -58 -73 return
          </CharString>
          <CharString index="157">
            81 143 -110 75 rcurveline
            return
          </CharString>
          <CharString index="158">
            -273 -21 return
          </CharString>
          <CharString index="159">
            63 callsubr
            hstem
            return
          </CharString>
          <CharString index="160">
            90 -27 rmoveto
            return
          </CharString>
          <CharString index="161">
            -34 140 return
          </CharString>
          <CharString index="162">
            -40 rrcurveto
            endchar
          </CharString>
          <CharString index="163">
            -87 -185 916 hstem
            201 69 vstem
            return
          </CharString>
          <CharString index="164">
            55 56 19 75 11 107 37 callsubr
            return
          </CharString>
          <CharString index="165">
            115 -110 -20 130 68 callsubr
            return
          </CharString>
          <CharString index="166">
            89 -61 21 31 51 32 48 33 44 rlinecurve
            return
          </CharString>
          <CharString index="167">
            -20 hstemhm
            -146 779 -688 140 return
          </CharString>
          <CharString index="168">
            -76 -39 -79 -40 -99 -29 return
          </CharString>
          <CharString index="169">
            97 704 -20 return
          </CharString>
          <CharString index="170">
            575 119 return
          </CharString>
          <CharString index="171">
            -132 -71 -151 -39 -143 -19 return
          </CharString>
          <CharString index="172">
            162 0 -20 hstemhm
            220 162 return
          </CharString>
          <CharString index="173">
            189 35 192 60 114 63 return
          </CharString>
          <CharString index="174">
            170 8 180 73 121 77 return
          </CharString>
          <CharString index="175">
            116 hstemhm
            return
          </CharString>
          <CharString index="176">
            hstem
            -81 736 73 callsubr
            return
          </CharString>
          <CharString index="177">
            293 hstem
            161 425 vstem
            return
          </CharString>
          <CharString index="178">
            rmoveto
            -15 16 19 -8 return
          </CharString>
          <CharString index="179">
            8 -19 15 -16 hvcurveto
            return
          </CharString>
          <CharString index="180">
            vstem
            76 callsubr
            return
          </CharString>
          <CharString index="181">
            hstemhm
            -35 142 return
          </CharString>
          <CharString index="182">
            529 159 return
          </CharString>
          <CharString index="183">
            38 -27 rmoveto
            return
          </CharString>
          <CharString index="184">
            159 hstemhm
            return
          </CharString>
          <CharString index="185">
            44 44 -35 return
          </CharString>
        <CharString name=".notdef">
          47 0 189 514 219 hstem
          48 93 354 93 vstem
          48 hmoveto
          540 922 -540 hlineto
          93 -733 rmoveto
          128 260 -128 254 rlineto
          114 hlineto
          40 -97 22 -66 23 66 41 97 rlineto
          114 hlineto
          -128 -255 128 -259 rlineto
          -108 hlineto
          -42 97 -27 75 -27 -75 -42 -97 rlineto
          endchar
        </CharString>
        <CharString name=".null">
          endchar
        </CharString>
        <CharString name="A">
          62 callsubr
          hstem
          -82 721 vstem
          -104 callsubr
          endchar
        </CharString>
        <CharString name="AE">
          362 -41 736 hstem
          -82 1029 vstem
          35 -29 rmoveto
          45 100 58 90 61 83 38 -27 36 -32 35 -37 -16 -31 -16 -28 -15 -27 113 -103 rcurveline
          34 65 99 -27 126 -22 112 -11 rlinecurve
          45 128 -117 11 -101 16 -105 27 rlinecurve
          21 44 19 43 17 42 73 -22 57 -14 93 -19 44 123 rcurveline
          -88 16 -54 12 -83 22 15 47 12 46 11 47 93 -17 104 -31 92 -39 54 127 rcurveline
          -104 43 -133 40 -107 13 -11 -62 rcurveline
          -99 88 -4 -36 -7 -38 -10 -41 rlinecurve
          -75 69 -61 -49 -82 -78 -84 -96 rlinecurve
          -23 15 -24 13 -27 15 -86 -108 rcurveline
          25 -15 24 -11 23 -15 -61 -79 -56 -84 -47 -85 rrcurveto
          362 272 rmoveto
          64 73 62 61 51 47 -24 -88 -35 -90 -37 -85 -24 28 -26 27 -31 27 rrcurveto
          endchar
        </CharString>
        <CharString name="Aacute">
          62 callsubr
          hstem
          -82 863 vstem
          -104 callsubr
          207 370 -71 callsubr
        </CharString>
        <CharString name="Acircumflex">
          62 callsubr
          hstem
          -82 878 vstem
          -104 callsubr
          130 375 -79 callsubr
        </CharString>
        <CharString name="Adieresis">
          97 649 158 -103 -20 61 159 -138 -21 hstemhm
          394 31 callsubr
          hintmask 01011100
          -104 callsubr
          128 410 -65 callsubr
          hvcurveto
          hintmask 01101100
          -38 callsubr
          vhcurveto
          hintmask 01011100
          0 callsubr
          vhcurveto
          hintmask 10001100
          -82 callsubr
        </CharString>
        <CharString name="Agrave">
          62 callsubr
          78 -21 hstem
          -82 783 vstem
          -104 callsubr
          340 308 -52 callsubr
        </CharString>
        <CharString name="Aring">
          97 694 70 -60 -20 174 70 hstemhm
          540 69 95 70 hintmask 01111000
          hintmask 10111000
          -106 callsubr
          rrcurveto
          hintmask 01111000
          -30 32 -33 30 -36 27 rrcurveto
          322 345 -9 callsubr
        </CharString>
        <CharString name="Atilde">
          62 callsubr
          101 116 hstem
          -82 902 vstem
          -104 callsubr
          344 336 -27 callsubr
          -43 11 -64 89 -64 19 rlinecurve
          8 callsubr
          30 -8 48 -52 44 -34 rlinecurve
          endchar
        </CharString>
        <CharString name="B">
          92 -33 136 472 119 hstem
          -71 748 vstem
          42 -33 rmoveto
          135 176 29 85 133 hvcurveto
          20 126 -31 25 -32 25 -32 21 rlinecurve
          100 29 91 51 75 79 -76 169 21 callsubr
          40 -4 -7 47 hvcurveto
          -124 -151 -88 -144 -91 -200 rrcurveto
          317 278 rmoveto
          32 49 35 46 35 45 -89 72 rcurveline
          97 -16 105 -30 68 -34 -69 -61 -80 -39 -134 -32 rrcurveto
          -142 -244 rmoveto
          29 60 31 54 32 52 61 -27 78 -36 34 -40 -64 -35 -94 -24 -107 -4 rrcurveto
          endchar
        </CharString>
        <CharString name="C">
          19 -32 731 hstem
          -52 668 vstem
          75 -32 rmoveto
          110 8 145 32 124 77 -39 114 rcurveline
          -100 -49 -91 -19 -97 -7 -7 callsubr
        </CharString>
        <CharString name="CR">
          endchar
        </CharString>
        <CharString name="Ccedilla">
          19 -232 81 -81 931 hstemhm
          -118 734 hintmask 01100000
          44 -3 rmoveto
          hintmask 10100000
          -54 -73 16 callsubr
          20 29 rcurveline
          38 6 93 16 105 32 93 58 rlinecurve
          -39 114 -100 -49 -91 -19 -97 -7 rlinecurve
          -7 callsubr
        </CharString>
        <CharString name="D">
          -8 callsubr
          -125 -152 -79 -138 -80 -182 rrcurveto
          176 31 rmoveto
          63 137 73 114 89 113 -88 72 rcurveline
          88 -15 93 -25 69 -29 44 callsubr
        </CharString>
        <CharString name="DC1">
          endchar
        </CharString>
        <CharString name="DC2">
          endchar
        </CharString>
        <CharString name="DC3">
          endchar
        </CharString>
        <CharString name="DC4">
          endchar
        </CharString>
        <CharString name="DEL">
          endchar
        </CharString>
        <CharString name="DLE">
          endchar
        </CharString>
        <CharString name="E">
          25 callsubr
          hstem
          -54 715 vstem
          -97 callsubr
          endchar
        </CharString>
        <CharString name="Eacute">
          25 callsubr
          hstem
          -54 780 vstem
          -97 callsubr
          495 605 -71 callsubr
        </CharString>
        <CharString name="Ecircumflex">
          25 callsubr
          -20 20 81 -21 hstemhm
          -54 757 hintmask 10111000
          -99 callsubr
          rrcurveto
          hintmask 11011000
          -47 -124 rlineto
          -23 callsubr
          380 656 rmoveto
          78 35 37 15 78 21 rrcurveto
          hintmask 10111000
          -77 callsubr
        </CharString>
        <CharString name="Edieresis">
          25 callsubr
          -41 18 callsubr
          313 31 callsubr
          hintmask 11001110
          -97 callsubr
          390 674 -65 callsubr
          hvcurveto
          hintmask 11010110
          -38 callsubr
          vhcurveto
          hintmask 11001110
          0 callsubr
          vhcurveto
          hintmask 10100110
          -82 callsubr
        </CharString>
        <CharString name="Egrave">
          25 callsubr
          60 -21 hstem
          -54 715 vstem
          -97 callsubr
          601 560 -52 callsubr
        </CharString>
        <CharString name="Eth">
          -8 callsubr
          -31 -38 -29 -37 -26 -37 -7 -9 -6 -10 -7 -10 -24 6 rcurveline
          -26 7 -28 6 -30 6 -42 -112 rcurveline
          28 -6 28 -6 27 -7 -51 -96 rcurveline
          -20 -41 -20 -43 -20 -45 rrcurveto
          176 31 rmoveto
          24 53 26 50 28 47 29 -10 31 -11 31 -13 47 112 rcurveline
          -71 27 25 37 26 36 29 36 rlinecurve
          -88 72 88 -15 93 -25 69 -29 rlinecurve
          44 callsubr
        </CharString>
        <CharString name="Euro">
          70 529 -20 32 -20 hstemhm
          31 611 hintmask 01100000
          31 91 rmoveto
          130 -114 93 9 116 29 105 56 rlinecurve
          -40 109 -84 -36 -96 -30 -76 -9 rlinecurve
          6 50 15 50 23 49 39 -24 33 -24 27 -19 43 62 rcurveline
          -28 21 -37 25 -41 27 25 37 rcurveline
          40 -25 36 -25 27 -19 43 62 rcurveline
          -27 19 -33 24 -37 24 48 52 56 46 61 32 -11 -41 -17 -47 -23 -40 117 -57 rcurveline
          31 47 31 78 16 52 -188 126 rcurveline
          hintmask 10100000
          -100 -47 -79 -59 -61 -71 -31 16 -27 14 -21 9 -38 -63 rcurveline
          20 -11 24 -10 25 -15 -25 -38 rcurveline
          -27 15 -24 12 -20 8 -38 -63 rcurveline
          21 -11 25 -13 27 -15 rrcurveto
          hintmask 01100000
          -35 -73 -23 -78 -16 -83 rrcurveto
          endchar
        </CharString>
        <CharString name="F">
          -5 577 124 hstem
          -77 720 vstem
          37 -29 rmoveto
          36 89 48 93 52 88 65 -16 55 -19 99 -32 49 122 rcurveline
          -85 27 -53 16 -60 12 35 51 33 45 33 43 -86 71 rcurveline
          108 -22 124 -36 96 -43 57 145 rcurveline
          -164 65 -165 26 -156 5 -46 -124 rcurveline
          32 40 -4 -7 43 hvcurveto
          -100 -121 -137 -222 -67 -147 rrcurveto
          endchar
        </CharString>
        <CharString name="G">
          78 20 -21 hstem
          -47 696 vstem
          58 -1 rmoveto
          66 8 65 15 65 21 -28 -41 -33 -43 -39 -49 107 -97 rcurveline
          114 146 81 128 69 136 -134 69 rcurveline
          -19 -43 -15 -33 -16 -32 -71 -21 -65 -12 -72 -11 43 180 137 151 176 91 -9 -31 -12 -32 -13 -27 123 -68 rcurveline
          31 52 27 59 13 47 -182 133 rcurveline
          -265 -111 -193 -247 -56 -240 rrcurveto
          endchar
        </CharString>
        <CharString name="H">
          141 -58 744 hstem
          -50 803 vstem
          67 -29 rmoveto
          39 92 45 94 55 104 47 -25 43 -27 45 -29 -24 -47 -21 -43 -19 -41 116 -107 rcurveline
          19 49 23 53 27 53 23 -17 24 -18 24 -19 78 114 rcurveline
          -85 63 76 133 83 126 68 92 rlinecurve
          -108 97 -61 -77 -92 -143 -85 -147 rlinecurve
          -43 27 -42 25 -45 25 51 77 50 78 43 56 -108 97 rcurveline
          -44 -56 -60 -87 -61 -100 -80 38 rcurveline
          -68 -117 79 -38 -49 -85 -45 -86 -35 -77 rlinecurve
          endchar
        </CharString>
        <CharString name="HT">
          endchar
        </CharString>
        <CharString name="I">
          -229 -29 718 hstem
          -63 460 vstem
          -80 callsubr
          endchar
        </CharString>
        <CharString name="IJ">
          265 -29 718 hstem
          -63 954 vstem
          -80 callsubr
          400 -106 -49 callsubr
          endchar
        </CharString>
        <CharString name="Iacute">
          -229 -29 957 hstem
          -63 768 vstem
          -80 callsubr
          483 631 -71 callsubr
        </CharString>
        <CharString name="Icircumflex">
          -229 -29 950 hstem
          -63 669 vstem
          -80 callsubr
          292 656 -79 callsubr
        </CharString>
        <CharString name="Idieresis">
          -229 649 18 callsubr
          193 31 callsubr
          hintmask 00111000
          -80 callsubr
          279 691 -67 callsubr
        </CharString>
        <CharString name="Igrave">
          -229 768 -21 hstem
          -63 585 vstem
          -80 callsubr
          513 595 -52 callsubr
        </CharString>
        <CharString name="Itilde">
          -229 -29 922 -232 40 callsubr
          -63 690 hintmask 10010000
          -80 callsubr
          hintmask 01010000
          503 608 -16 callsubr
        </CharString>
        <CharString name="J">
          -95 -29 718 hstem
          -78 609 vstem
          -23 -29 -49 callsubr
          endchar
        </CharString>
        <CharString name="Jcircumflex">
          -95 -29 950 hstem
          -78 808 vstem
          -23 -29 -49 callsubr
          376 762 -79 callsubr
        </CharString>
        <CharString name="K">
          85 -58 747 -36 callsubr
          endchar
        </CharString>
        <CharString name="Kcommaaccent">
          85 51 callsubr
          -36 callsubr
          223 -81 -31 callsubr
        </CharString>
        <CharString name="L">
          -79 -37 726 hstem
          -62 462 vstem
          58 4 -45 callsubr
          endchar
        </CharString>
        <CharString name="LF">
          endchar
        </CharString>
        <CharString name="Ldot">
          -79 148 186 hstem
          254 186 vstem
          58 4 -45 callsubr
          316 128 rmoveto
          -54 callsubr
        </CharString>
        <CharString name="Lslash">
          -79 -37 726 hstem
          -62 489 vstem
          -40 248 rmoveto
          153 21 165 22 149 31 -17 100 rcurveline
          -147 -29 -179 -35 -136 -19 rrcurveto
          110 -335 -45 callsubr
          endchar
        </CharString>
        <CharString name="M">
          302 713 -20 hstem
          -78 934 vstem
          29 -14 rmoveto
          104 224 71 128 91 145 -35 -122 -24 -125 -29 -178 106 -92 rcurveline
          151 180 96 122 109 144 -40 -109 -46 -108 -80 -164 119 -97 rcurveline
          116 261 49 138 69 222 -143 123 rcurveline
          -128 -184 -94 -127 -123 -150 21 127 24 102 43 138 -147 129 rcurveline
          -173 -226 -92 -154 -122 -247 rrcurveto
          endchar
        </CharString>
        <CharString name="N">
          138 704 -20 hstem
          -70 823 vstem
          -73 callsubr
          endchar
        </CharString>
        <CharString name="Nacute">
          138 704 -20 hstem
          -70 858 vstem
          -73 callsubr
          573 631 -71 callsubr
        </CharString>
        <CharString name="Ntilde">
          138 699 58 callsubr
          -70 843 hintmask 01010000
          -73 callsubr
          hintmask 10010000
          656 646 -27 callsubr
          rlineto
          hintmask 01110000
          -13 callsubr
          hintmask 10010000
          30 callsubr
        </CharString>
        <CharString name="O">
          97 -52 747 hstem
          -18 670 vstem
          -102 callsubr
          endchar
        </CharString>
        <CharString name="OE">
          362 -52 747 -731 128 hstemhm
          -18 965 hintmask 10100000
          -18 84 rmoveto
          hintmask 01100000
          148 -136 104 17 81 35 65 51 rlinecurve
          42 -38 92 -23 102 -19 125 -7 rlinecurve
          45 128 -119 7 -92 17 -97 25 rlinecurve
          25 51 24 47 23 40 64 -21 59 -10 85 -19 44 123 rcurveline
          -67 12 -59 13 -67 17 43 127 rcurveline
          92 -23 85 -25 64 -27 54 127 rcurveline
          -104 44 -128 41 -153 21 -26 -56 rcurveline
          -37 27 -38 22 -43 23 rrcurveto
          hintmask 10100000
          -33 callsubr
          154 12 rmoveto
          16 182 126 190 131 69 69 -42 46 -36 69 -61 -37 11 -37 9 -43 15 -141 -284 -98 -37 -101 -16 rrcurveto
          endchar
        </CharString>
        <CharString name="Oacute">
          97 -52 953 hstem
          -18 872 vstem
          -102 callsubr
          587 597 -71 callsubr
        </CharString>
        <CharString name="Ocircumflex">
          97 765 -21 hstem
          -18 793 vstem
          -102 callsubr
          416 660 -79 callsubr
        </CharString>
        <CharString name="Odieresis">
          97 659 18 callsubr
          360 31 callsubr
          hintmask 00111000
          -102 callsubr
          401 694 -67 callsubr
        </CharString>
        <CharString name="Ograve">
          97 -52 994 hstem
          -18 675 vstem
          -102 callsubr
          603 574 -52 callsubr
        </CharString>
        <CharString name="Oslash">
          106 719 -20 hstem
          -81 789 vstem
          12 56 rmoveto
          -31 -35 -31 -31 -31 -29 70 -70 rcurveline
          29 31 32 32 35 35 45 -41 rcurveline
          -12 callsubr
          45 135 rcurveline
          -33 33 89 98 -71 67 -29 -32 -33 -34 -32 -35 rlinecurve
          -39 29 -41 25 -45 23 -33 callsubr
          154 7 rmoveto
          -46 callsubr
          -138 50 rcurveline
          -11 callsubr
          rrcurveto
          endchar
        </CharString>
        <CharString name="Otilde">
          97 -52 955 -232 40 callsubr
          -18 798 hintmask 10010000
          -102 callsubr
          hintmask 01010000
          611 611 -16 callsubr
        </CharString>
        <CharString name="P">
          85 52 callsubr
          -66 728 vstem
          48 -30 rmoveto
          43 104 45 91 51 85 66 -94 rcurveline
          167 45 150 99 92 131 -78 175 -19 callsubr
          41 -20 callsubr
          268 200 rmoveto
          45 74 50 71 53 67 -86 71 rcurveline
          92 -19 96 -28 67 -35 -71 -85 -111 -69 -135 -47 rrcurveto
          endchar
        </CharString>
        <CharString name="Q">
          77 -203 900 hstem
          -20 653 vstem
          -20 -4 rmoveto
          122 -90 89 -51 156 -58 64 125 rcurveline
          -85 32 -64 27 -60 29 263 84 133 200 35 289 -132 101 rcurveline
          -3 -31 -3 -29 -5 -28 -64 101 rcurveline
          -235 -69 -165 -206 -19 -240 99 -68 rcurveline
          -24 -8 -23 -7 -27 -5 rrcurveto
          99 29 rmoveto
          32 227 125 162 199 67 -43 -232 -120 -151 -193 -73 rrcurveto
          endchar
        </CharString>
        <CharString name="R">
          89 575 -57 callsubr
          endchar
        </CharString>
        <CharString name="RS">
          endchar
        </CharString>
        <CharString name="Racute">
          89 52 callsubr
          -66 825 -100 callsubr
          262 415 -71 callsubr
        </CharString>
        <CharString name="Rcaron">
          89 63 callsubr
          89 -21 hstem
          -66 834 -100 callsubr
          325 370 4 callsubr
        </CharString>
        <CharString name="Rcommaaccent">
          89 51 callsubr
          869 -57 callsubr
          -72 -301 -31 callsubr
        </CharString>
        <CharString name="S">
          23 722 -20 hstem
          -68 689 vstem
          21 84 rmoveto
          93 -57 102 -44 137 -36 84 134 rcurveline
          -45 141 -89 120 -29 93 56 61 70 55 68 36 -25 -71 -32 -73 -27 -43 120 -69 rcurveline
          35 50 64 128 18 84 -193 129 rcurveline
          -101 -48 -139 -103 -86 -108 32 -113 90 -111 53 -129 -100 39 -91 55 -87 60 -67 -122 rcurveline
          29 -20 30 -19 30 -19 rrcurveto
          endchar
        </CharString>
        <CharString name="T">
          -13 -29 756 hstem
          11 640 vstem
          11 78 rmoveto
          117 -107 88 208 70 135 111 151 rlinecurve
          -85 76 96 -33 91 -37 83 -35 rlinecurve
          69 138 -168 65 -177 57 -161 31 rlinecurve
          -74 -115 68 -17 71 -21 72 -23 rlinecurve
          -87 -120 -103 -150 -81 -203 rrcurveto
          endchar
        </CharString>
        <CharString name="Thorn">
          78 -29 719 hstem
          -66 652 vstem
          50 -29 rmoveto
          28 66 32 68 35 71 49 -80 rcurveline
          140 27 102 43 150 94 -78 175 rcurveline
          -61 36 -49 26 -55 23 17 27 17 23 17 24 -109 96 rcurveline
          -152 -211 -105 -192 -94 -209 rrcurveto
          238 151 rmoveto
          32 61 32 59 35 59 53 -23 50 -22 56 -35 -75 -45 -72 -30 -111 -24 rrcurveto
          endchar
        </CharString>
        <CharString name="U">
          91 -50 745 hstem
          -50 757 vstem
          -95 callsubr
          endchar
        </CharString>
        <CharString name="US">
          endchar
        </CharString>
        <CharString name="Uacute">
          91 -50 978 hstem
          -50 813 vstem
          -95 callsubr
          528 612 -71 callsubr
        </CharString>
        <CharString name="Ucircumflex">
          91 774 -21 hstem
          -50 814 vstem
          -95 callsubr
          437 657 -79 callsubr
        </CharString>
        <CharString name="Udieresis">
          91 659 18 callsubr
          377 31 callsubr
          hintmask 00111000
          -95 callsubr
          450 682 -67 callsubr
        </CharString>
        <CharString name="Ugrave">
          91 768 -21 hstem
          -50 757 vstem
          -95 callsubr
          578 576 -52 callsubr
        </CharString>
        <CharString name="V">
          66 707 -20 hstem
          38 650 vstem
          79 59 rmoveto
          105 -97 183 125 193 226 128 240 rlinecurve
          -108 107 -117 -216 -145 -187 -145 -126 rlinecurve
          43 163 76 154 91 141 -111 118 rcurveline
          -97 -32 -60 -32 -75 -43 49 -115 rcurveline
          35 19 37 20 41 20 -73 -111 -50 -108 -41 -132 102 -89 rcurveline
          -20 -17 -21 -15 -20 -13 rrcurveto
          endchar
        </CharString>
        <CharString name="W">
          385 702 -20 hstem
          36 934 vstem
          36 106 rmoveto
          150 -135 76 60 61 55 69 80 rlinecurve
          -11 -35 -9 -30 -8 -31 132 -117 rcurveline
          197 122 176 212 101 231 -109 100 rcurveline
          -100 -224 -121 -164 -140 -115 29 110 40 119 101 187 18 33 rcurveline
          -104 96 -115 -211 -135 -185 -147 -123 rlinecurve
          43 161 69 147 91 141 -112 112 rcurveline
          -97 -32 -63 -36 -75 -43 49 -115 rcurveline
          33 19 37 19 40 19 -80 -129 -55 -145 -31 -153 rrcurveto
          endchar
        </CharString>
        <CharString name="X">
          15 20 -21 hstem
          191 139 vstem
          3 3 rmoveto
          77 87 67 73 80 61 19 -84 26 -86 35 -92 141 37 rcurveline
          -39 96 -36 108 -23 99 95 79 92 67 131 72 -90 120 rcurveline
          -92 -59 -79 -59 -77 -68 -1 49 2 52 5 43 -87 96 rcurveline
          -68 -24 -62 -29 -63 -39 48 -110 rcurveline
          26 14 29 14 32 14 rrcurveto
          -57 3 -55 6 -55 vhcurveto
          -108 -72 -94 -88 -88 -95 rrcurveto
          endchar
        </CharString>
        <CharString name="Y">
          -23 -41 772 hstem
          106 139 vstem
          -66 callsubr
          endchar
        </CharString>
        <CharString name="Yacute">
          -23 -41 969 hstem
          106 139 vstem
          -66 callsubr
          373 642 -71 callsubr
        </CharString>
        <CharString name="Ydieresis">
          -23 669 18 callsubr
          106 139 3 31 callsubr
          hintmask 00110000
          -66 callsubr
          hintmask 00101000
          258 722 -65 callsubr
          hvcurveto
          hintmask 01001000
          -38 callsubr
          vhcurveto
          hintmask 00101000
          0 callsubr
          vhcurveto
          hintmask 10010100
          -82 callsubr
        </CharString>
        <CharString name="Z">
          42 -52 753 hstem
          -65 707 vstem
          -65 79 rmoveto
          117 -60 158 -43 169 -28 51 131 rcurveline
          -92 15 -87 16 -84 24 172 88 161 116 101 99 41 122 rcurveline
          -142 67 -108 43 -144 32 -129 -90 rcurveline
          5 -59 8 -48 19 -65 132 16 rcurveline
          -7 32 -5 34 -7 39 72 -17 60 -19 67 -25 -118 -102 -193 -129 -178 -75 rrcurveto
          endchar
        </CharString>
        <CharString name="a">
          -89 callsubr
          endchar
        </CharString>
        <CharString name="aacute">
          27 530 -20 213 -96 callsubr
          338 422 -64 callsubr
        </CharString>
        <CharString name="acircumflex">
          -89 callsubr
          186 481 -92 callsubr
        </CharString>
        <CharString name="acute">
          -234 723 -20 hstem
          89 311 vstem
          164 539 -64 callsubr
        </CharString>
        <CharString name="acute.cap">
          -234 708 220 hstem
          75 324 vstem
          114 708 -71 callsubr
        </CharString>
        <CharString name="adieresis">
          27 75 callsubr
          -158 -20 115 77 callsubr
          54 callsubr
          160 32 callsubr
          hintmask 01111100
          -105 callsubr
          183 531 -72 callsubr
          hintmask 10011100
          -83 callsubr
        </CharString>
        <CharString name="ae">
          250 33 callsubr
          240 -20 21 -20 hstemhm
          54 callsubr
          hintmask 11011000
          53 callsubr
          87 35 50 35 45 43 123 -113 rcurveline
          67 callsubr
          27 callsubr
          -130 -80 -169 -41 -141 -8 -5 callsubr
          31 -39 callsubr
          rlineto
          hintmask 11101000
          -33 -11 -33 -16 -35 -21 -75 79 rcurveline
          -19 -31 -13 -32 -13 -32 -41 63 -44 callsubr
          500 202 41 callsubr
          -360 -173 -51 callsubr
          -7 -40 -15 -51 -63 -80 -73 -43 -68 -19 rrcurveto
          endchar
        </CharString>
        <CharString name="agrave">
          -89 callsubr
          323 427 -53 callsubr
        </CharString>
        <CharString name="ampersand">
          167 -98 777 hstem
          219 141 vstem
          49 -20 rmoveto
          95 8 90 18 86 27 25 -45 28 -44 31 -42 128 74 rcurveline
          -28 35 -23 35 -23 39 59 26 52 29 46 31 -60 97 rcurveline
          -47 -29 -50 -24 -52 -20 -13 35 -11 35 -7 35 106 32 76 45 83 72 -50 124 rcurveline
          -51 39 -66 40 -55 27 -169 -49 rcurveline
          -27 -91 -8 -86 5 -84 -120 -56 -77 -51 -99 -96 rrcurveto
          437 252 rmoveto
          -1 47 3 47 9 47 39 -20 44 -26 41 -27 -41 -29 -42 -20 -52 -19 rrcurveto
          -275 -292 rmoveto
          54 46 36 31 63 37 7 -31 9 -29 11 -28 -63 -14 -60 -9 -57 -3 rrcurveto
          endchar
        </CharString>
        <CharString name="aring">
          27 530 -20 45 70 94 70 hstemhm
          54 callsubr
          283 69 94 71 hintmask 10111100
          -105 callsubr
          hintmask 11111100
          354 447 -50 callsubr
        </CharString>
        <CharString name="asciicircum">
          65 91 458 hstem
          43 450 vstem
          102 205 rmoveto
          73 63 72 56 87 59 19 -101 15 -99 11 -92 114 24 rcurveline
          -5 112 -22 161 -21 116 -98 45 rcurveline
          -101 -61 -115 -95 -88 -91 rrcurveto
          endchar
        </CharString>
        <CharString name="asciitilde">
          31 185 120 -1 120 hstemhm
          58 430 hintmask 10100000
          hintmask 01100000
          58 301 rmoveto
          2 18 16 1 14 hhcurveto
          hintmask 10100000
          118 43 -119 107 hhcurveto
          27 23 3 7 28 hvcurveto
          36 113 rlineto
          -2 -17 -16 -1 -15 hhcurveto
          hintmask 01100000
          -111 -51 119 -107 hhcurveto
          -27 -22 -5 -5 -28 hvcurveto
          endchar
        </CharString>
        <CharString name="asterisk">
          -13 455 98 -25 -20 198 -20 hstemhm
          111 433 hintmask 01110000
          166 359 rmoveto
          37 27 41 24 43 23 13 -48 14 -42 20 -51 94 27 rcurveline
          hintmask 10110000
          -13 43 -10 46 -7 45 47 -3 41 2 53 3 5 98 rcurveline
          -45 -46 5 7 -45 hvcurveto
          19 47 12 41 15 53 -92 36 rcurveline
          -15 -45 -19 -44 -23 -43 -39 32 -36 24 -45 31 rrcurveto
          hintmask 01110000
          -61 -77 36 -28 35 -31 33 -33 rlinecurve
          -41 -27 -33 -25 -43 -33 rrcurveto
          endchar
        </CharString>
        <CharString name="at">
          549 -230 110 709 111 hstem
          50 124 114 126 468 119 vstem
          50 127 rmoveto
          -199 156 -158 229 185 169 73 129 160 vhcurveto
          -52 85 rlineto
          -117 -157 -141 -60 -157 hhcurveto
          -163 -105 112 152 256 232 189 209 144 123 -109 -143 -31 -6 -49 -12 -36 hvcurveto
          -42 -24 -121 -38 -54 -13 34 79 65 103 45 59 -84 67 rcurveline
          -17 -21 -15 -18 -12 -16 -56 86 rcurveline
          -208 -19 -111 -179 -181 vvcurveto
          106 -98 64 20 53 29 39 28 rlinecurve
          66 -74 89 30 170 72 104 67 rlinecurve
          15 48 7 47 45 vvcurveto
          216 -166 164 -215 -283 -287 -233 -340 vhcurveto
          364 4 rmoveto
          3 112 59 94 131 27 -21 -125 -47 -73 -125 -35 rrcurveto
          endchar
        </CharString>
        <CharString name="atilde">
          27 525 58 callsubr
          54 callsubr
          hintmask 01010000
          -105 callsubr
          hintmask 10010000
          383 432 -28 callsubr
          rlineto
          hintmask 01110000
          -14 callsubr
          hintmask 10010000
          29 callsubr
        </CharString>
        <CharString name="b">
          19 714 -20 hstem
          -86 720 vstem
          24 -27 rmoveto
          8 25 7 27 11 31 104 -83 rcurveline
          234 48 83 27 163 83 3 callsubr
          -65 -29 -77 -33 -56 -15 41 67 31 77 12 83 -156 122 rcurveline
          -55 -31 -42 -32 -36 -33 53 89 47 79 43 61 -104 77 rcurveline
          -99 -146 -185 -347 -51 -162 rrcurveto
          202 49 rmoveto
          3 63 9 34 16 43 49 53 83 51 83 29 -10 -97 -60 -116 -51 -35 rrcurveto
          -18 -26 -57 -7 -39 hhcurveto
          endchar
        </CharString>
        <CharString name="backslash">
          -119 715 -20 hstem
          46 345 vstem
          264 98 rmoveto
          45 -142 82 48 -93 294 -49 133 -120 284 rlinecurve
          -83 -44 99 -222 48 -133 71 -218 rlinecurve
          endchar
        </CharString>
        <CharString name="bar">
          56 callsubr
          201 -117 rmoveto
          69 -68 rlineto
          853 vlineto
          -69 63 rlineto
          endchar
        </CharString>
        <CharString name="braceleft">
          -99 361 81 hstemhm
          80 115 -28 99 hintmask 11000000
          96 102 rmoveto
          -19 -77 -6 -94 31 -97 97 21 rcurveline
          -16 158 37 125 46 81 rrcurveto
          hintmask 10100000
          2 43 -11 48 -24 51 40 -3 59 12 26 13 69 117 49 117 133 59 -45 88 rcurveline
          -178 -53 -73 -161 -52 -92 -11 -19 -51 -4 -80 19 -42 -82 rcurveline
          61 -37 40 -29 -14 -29 rrcurveto
          hintmask 11000000
          -19 -35 -30 -63 -19 -77 rrcurveto
          endchar
        </CharString>
        <CharString name="braceright">
          -99 96 81 527 -20 hstemhm
          189 99 -28 115 hintmask 11010000
          359 436 rmoveto
          19 77 6 94 -31 97 -97 -21 rcurveline
          16 -158 -37 -125 -46 -81 rrcurveto
          hintmask 11100000
          -2 -43 11 -48 24 -51 -40 3 -59 -12 -26 -13 -69 -117 -49 -117 -133 -59 45 -88 rcurveline
          178 53 73 161 52 92 11 19 51 4 80 -19 42 82 rcurveline
          -61 37 -40 29 14 29 rrcurveto
          hintmask 11010000
          19 35 30 63 19 77 rrcurveto
          endchar
        </CharString>
        <CharString name="bracketleft">
          -76 -170 941 hstem
          -8 654 vstem
          -8 -35 rmoveto
          89 -87 64 -27 41 -10 73 -11 rlinecurve
          28 89 -64 17 -51 19 -49 19 rlinecurve
          115 253 122 201 136 219 35 -11 36 -10 47 -19 32 85 rcurveline
          -82 35 -39 14 -89 30 -192 -288 -110 -200 -142 -318 rrcurveto
          endchar
        </CharString>
        <CharString name="bracketright">
          -76 -242 941 hstem
          -177 654 vstem
          477 564 rmoveto
          -89 87 -64 27 -41 10 -73 11 rlinecurve
          -28 -89 64 -17 51 -19 49 -19 rlinecurve
          -115 -253 -122 -201 -136 -219 -35 11 -36 10 -47 19 -32 -85 rcurveline
          82 -35 39 -14 89 -30 192 288 110 200 142 318 rrcurveto
          endchar
        </CharString>
        <CharString name="brokenbar">
          56 callsubr
          270 337 rmoveto
          331 vlineto
          -69 63 rlineto
          -327 vlineto
          -521 vmoveto
          69 -68 rlineto
          332 vlineto
          -69 63 rlineto
          endchar
        </CharString>
        <CharString name="bullet">
          -209 195 236 hstem
          44 236 vstem
          78 229 rmoveto
          -21 21 30 -13 32 hhcurveto
          68 51 51 67 67 -51 51 -68 -65 -52 -51 -67 -33 13 -30 21 -21 hvcurveto
          endchar
        </CharString>
        <CharString name="c">
          -58 531 -20 hstem
          -32 142 vstem
          -32 88 rmoveto
          124 -115 162 8 182 73 122 77 rlinecurve
          -22 101 64 callsubr
          rlinecurve
          -15 callsubr
        </CharString>
        <CharString name="caron">
          -234 555 302 hstem
          71 398 vstem
          238 555 5 callsubr
        </CharString>
        <CharString name="caron.cap">
          -234 627 70 callsubr
          355 627 4 callsubr
        </CharString>
        <CharString name="ccedilla">
          -58 -223 81 673 -20 hstem
          -32 142 vstem
          67 -3 rmoveto
          -47 -64 16 callsubr
          18 26 rcurveline
          21 3 21 4 21 5 126 28 124 54 92 58 27 callsubr
          64 callsubr
          rrcurveto
          -15 callsubr
        </CharString>
        <CharString name="cedilla">
          -234 -214 81 -81 276 hstemhm
          -75 297 hintmask 01100000
          hintmask 10100000
          33 -58 rmoveto
          20 -16 13 -13 15 -17 -6 callsubr
          69 100 rcurveline
          -98 -4 rlineto
          endchar
        </CharString>
        <CharString name="cent">
          19 528 -20 hstem
          42 142 vstem
          1 16 rmoveto
          69 -53 23 31 26 32 24 33 rlinecurve
          35 -28 88 15 79 24 80 36 rlinecurve
          -35 114 -69 -25 -65 -15 -72 -13 rlinecurve
          -4 55 9 66 35 67 31 56 61 50 64 27 -7 -24 -13 -32 -21 -32 126 -63 rcurveline
          24 51 29 82 5 29 -47 29 rcurveline
          24 33 25 33 21 31 -69 53 rcurveline
          -23 -32 -29 -35 -25 -35 -52 33 rcurveline
          -81 -31 -105 -70 -66 -108 -60 -99 1 -91 5 -67 31 -26 rcurveline
          -24 -36 -27 -34 -21 -31 rrcurveto
          endchar
        </CharString>
        <CharString name="circumflex">
          -234 493 302 hstem
          71 398 vstem
          119 598 -92 callsubr
        </CharString>
        <CharString name="circumflex.cap">
          -234 628 70 callsubr
          209 733 -79 callsubr
        </CharString>
        <CharString name="colon">
          -154 -83 186 179 186 hstemhm
          0 186 -24 186 hintmask 11100000
          10 vmoveto
          -76 callsubr
          hintmask 11010000
          162 365 rmoveto
          -54 callsubr
        </CharString>
        <CharString name="comma">
          -222 -223 326 hstem
          -88 275 vstem
          23 29 19 callsubr
        </CharString>
        <CharString name="commaaccent">
          -234 -269 -21 hstem
          -55 245 vstem
          68 -4 -31 callsubr
        </CharString>
        <CharString name="copyright">
          613 -172 111 719 -59 callsubr
          192 49 rmoveto
          99 -94 145 16 76 16 115 40 rlinecurve
          -22 103 -107 -27 -47 -9 -114 -13 rlinecurve
          21 130 92 139 128 61 -14 -49 -18 -32 -26 -47 93 -54 rcurveline
          34 47 39 74 16 60 -143 104 rcurveline
          -202 -85 -122 -198 -43 -182 rrcurveto
          endchar
        </CharString>
        <CharString name="currency">
          94 117 107 191 111 hstem
          106 108 191 111 vstem
          67 130 rmoveto
          27 16 33 17 35 16 rrcurveto
          -39 37 53 -23 61 hhcurveto
          15 14 1 3 11 hvcurveto
          19 -33 18 -28 25 -35 88 53 rcurveline
          -17 27 -17 32 -16 35 rrcurveto
          39 37 24 51 59 vvcurveto
          17 -2 16 -4 15 vhcurveto
          31 19 27 17 35 23 -53 89 rcurveline
          -29 -18 -31 -16 -33 -15 rrcurveto
          37 -36 -52 23 -56 hhcurveto
          -17 -17 -2 -4 -16 hvcurveto
          -19 31 -17 28 -23 35 -88 -54 rcurveline
          16 -28 17 -32 15 -35 rrcurveto
          -36 -37 -22 -50 -59 vvcurveto
          -15 1 -13 3 -13 vhcurveto
          -33 -19 -29 -18 -35 -24 rrcurveto
          260 14 rmoveto
          -35 16 -24 32 40 vvcurveto
          55 42 41 55 53 41 -41 -55 -52 -41 -43 -53 -13 -13 2 5 -12 vhcurveto
          endchar
        </CharString>
        <CharString name="d">
          22 530 -20 204 -20 hstem
          54 callsubr
          vstem
          53 callsubr
          88 24 51 33 43 33 77 -86 rcurveline
          70 24 176 98 43 32 27 callsubr
          -54 -30 -108 -48 -62 -19 67 179 107 204 88 112 -97 84 rcurveline
          -45 -61 -68 -108 -51 -99 -55 84 -98 callsubr
          endchar
        </CharString>
        <CharString name="degree">
          -218 447 70 94 70 hstem
          94 69 94 71 vstem
          165 456 -50 callsubr
        </CharString>
        <CharString name="dieresis">
          -234 75 callsubr
          -63 77 callsubr
          72 32 callsubr
          hintmask 01110000
          95 648 -72 callsubr
          hintmask 10110000
          -83 callsubr
        </CharString>
        <CharString name="dieresis.cap">
          -234 693 158 -62 77 callsubr
          139 31 callsubr
          hintmask 10110000
          hintmask 01110000
          162 812 -78 callsubr
          hintmask 10110000
          -82 callsubr
        </CharString>
        <CharString name="divide">
          20 41 169 209 169 hstemhm
          125 168 -33 168 hintmask 11100000
          hintmask 11010000
          284 443 rmoveto
          -16 17 20 -8 23 hhcurveto
          47 callsubr
          -23 8 -20 16 -17 hvcurveto
          -220 -124 -62 callsubr
          hintmask 11100000
          15 -308 rmoveto
          -47 37 -37 47 47 callsubr
          vhcurveto
          endchar
        </CharString>
        <CharString name="dollar">
          72 542 -20 hstem
          -15 634 vstem
          16 -23 rmoveto
          78 -61 88 113 64 -23 67 -15 80 -7 rlinecurve
          80 142 -67 131 -76 75 -19 88 rlinecurve
          59 64 22 22 63 42 -9 -43 -8 -43 -19 -43 122 -59 rcurveline
          27 59 26 67 9 56 -58 35 rcurveline
          74 107 -78 58 -27 -36 -26 -38 -28 -39 rlinecurve
          -54 34 -97 -62 -77 -59 -91 -99 rlinecurve
          24 -125 80 -71 61 -114 -91 24 -84 41 -84 53 -62 -122 rcurveline
          33 -21 33 -18 36 -19 -24 -35 -24 -31 -23 -28 rrcurveto
          endchar
        </CharString>
        <CharString name="dotlessi">
          -257 -27 545 hstem
          -81 439 vstem
          -90 callsubr
          endchar
        </CharString>
        <CharString name="dotlessj">
          -257 51 callsubr
          hstem
          -204 562 vstem
          25 8 -63 callsubr
          endchar
        </CharString>
        <CharString name="e">
          -55 callsubr
          endchar
        </CharString>
        <CharString name="eacute">
          -51 26 callsubr
          212 -20 74 callsubr
          -142 736 hintmask 11110100
          -21 callsubr
          hintmask 11111000
          -94 callsubr
          296 249 -64 callsubr
        </CharString>
        <CharString name="ecircumflex">
          22 callsubr
          632 -81 callsubr
          78 308 -92 callsubr
        </CharString>
        <CharString name="edieresis">
          -51 33 callsubr
          230 36 callsubr
          -35 142 118 32 callsubr
          hintmask 11011111
          -21 callsubr
          -94 callsubr
          79 349 -72 callsubr
          hintmask 11100111
          -83 callsubr
        </CharString>
        <CharString name="egrave">
          -55 callsubr
          254 254 -53 callsubr
        </CharString>
        <CharString name="eight">
          31 -47 124 -124 725 -103 103 hstemhm
          -27 135 45 143 19 149 -7 131 hintmask 01010100
          26 56 rmoveto
          hintmask 10010100
          184 -103 rlineto
          133 5 121 78 112 vvcurveto
          49 -19 51 -38 52 vhcurveto
          hintmask 00111010
          94 11 87 41 93 vvcurveto
          47 -21 44 -23 43 vhcurveto
          -175 99 rlineto
          -125 -11 -91 -57 -116 vvcurveto
          -31 12 -39 16 -37 vhcurveto
          -111 -13 -97 -49 -122 vvcurveto
          hintmask 01010100
          -56 26 -48 27 -43 vhcurveto
          hintmask 00111010
          309 334 rmoveto
          -23 35 -16 30 27 vvcurveto
          56 46 34 80 3 vhcurveto
          23 -33 12 -34 -25 vvcurveto
          -64 -64 -21 -58 -8 vhcurveto
          hintmask 10010100
          -174 -313 rmoveto
          -27 35 -26 42 43 vvcurveto
          63 53 26 83 8 vhcurveto
          40 -41 31 -38 -36 vvcurveto
          -70 -90 -29 -64 -3 vhcurveto
          endchar
        </CharString>
        <CharString name="ellipsis">
          317 -83 186 hstem
          0 186 84 186 84 186 cntrmask 01110000
          10 vmoveto
          -76 callsubr
          270 hmoveto
          -76 callsubr
          270 hmoveto
          -54 callsubr
        </CharString>
        <CharString name="emdash">
          328 122 294 hstem
          47 725 vstem
          47 299 rmoveto
          215 -36 236 -58 237 -83 37 116 rcurveline
          -248 80 -230 59 -211 39 rrcurveto
          endchar
        </CharString>
        <CharString name="endash">
          100 178 243 hstem
          40 518 vstem
          40 306 rmoveto
          154 -32 147 -40 176 -56 41 114 rcurveline
          -184 59 -142 38 -152 32 rrcurveto
          endchar
        </CharString>
        <CharString name="equal">
          20 55 459 hstem
          15 505 vstem
          15 184 -62 callsubr
          35 102 -62 callsubr
          endchar
        </CharString>
        <CharString name="eth">
          -8 545 109 71 -20 hstem
          358 141 vstem
          91 -27 rmoveto
          113 21 85 55 56 57 41 -48 rcurveline
          70 16 74 24 77 33 3 callsubr
          -55 -11 -58 -6 -51 -3 rrcurveto
          45 84 32 108 137 vvcurveto
          32 3 33 0 35 1 -6 109 rcurveline
          -35 -1 -33 -1 -32 -3 -4 29 -4 24 -4 23 -138 -20 rcurveline
          3 -21 4 -22 3 -27 -32 -4 -34 -5 -35 -7 15 -109 rcurveline
          31 7 29 5 31 4 -1 -57 -6 -47 -11 -40 -91 92 rcurveline
          -89 -27 -65 -37 -56 -72 -57 -73 -28 -106 -5 -67 rrcurveto
          140 16 rmoveto
          16 124 81 102 150 32 -20 -69 -32 -47 -36 -43 -44 -52 -56 -34 -59 -13 rrcurveto
          endchar
        </CharString>
        <CharString name="exclam">
          -107 -83 186 615 -20 hstem
          0 186 vstem
          211 143 rmoveto
          80 189 67 110 128 177 -112 99 rcurveline
          -136 -189 -59 -102 -80 -181 rrcurveto
          -99 -236 rmoveto
          -54 callsubr
        </CharString>
        <CharString name="exclamdown">
          -107 529 186 0 -20 hstemhm
          -1 533 -186 186 hintmask 01100000
          hintmask 10010000
          373 556 rmoveto
          -16 17 22 -11 27 hhcurveto
          -61 callsubr
          -25 10 -24 17 -17 hvcurveto
          -374 -544 rmoveto
          111 -98 91 189 70 123 111 162 rlinecurve
          -109 101 -117 -181 -77 -128 -80 -168 rlinecurve
          endchar
        </CharString>
        <CharString name="f">
          -36 -263 -21 hstem
          -115 694 vstem
          -19 58 rmoveto
          -37 -83 -29 -75 -30 -98 120 -86 rcurveline
          35 131 38 110 47 113 61 -39 rcurveline
          159 32 101 26 133 42 3 callsubr
          -85 -27 -75 -18 -95 -16 140 113 93 166 35 191 -169 121 rcurveline
          -132 -92 -138 -181 -67 -236 -23 20 -22 23 -32 32 -63 -77 rcurveline
          39 -45 24 -26 33 -33 -15 -31 -13 -30 -12 -28 rrcurveto
          179 122 rmoveto
          49 167 92 147 143 143 -22 -129 -125 -213 -137 -115 rrcurveto
          endchar
        </CharString>
        <CharString name="five">
          14 -13 134 hstem
          -61 668 vstem
          -46 14 rmoveto
          -18 58 57 -9 57 hhcurveto
          144 125 60 129 87 hvcurveto
          -48 132 -96 43 -67 22 -75 22 rlinecurve
          96 138 88 -21 67 -25 106 -45 rlinecurve
          54 135 -109 45 -51 21 -94 24 rlinecurve
          -43 -7 -58 -15 -44 -19 -141 -203 rcurveline
          7 -122 102 -27 65 -22 86 -35 rlinecurve
          -71 -60 -85 -25 -85 hhcurveto
          -56 -53 10 17 -49 hvcurveto
          endchar
        </CharString>
        <CharString name="four">
          75 -29 709 hstem
          27 618 vstem
          192 67 rmoveto
          109 -96 27 64 30 62 32 64 rlinecurve
          43 -15 45 -15 47 -19 53 118 rcurveline
          -44 19 -41 14 -40 15 61 107 64 99 67 89 -95 78 rcurveline
          -81 -103 -78 -111 -68 -113 -51 17 -49 15 -55 16 77 84 78 66 96 80 -97 78 rcurveline
          -121 -91 -94 -84 -80 -103 21 -145 rcurveline
          75 -19 65 -16 67 -19 -24 -47 -20 -45 -19 -44 rrcurveto
          endchar
        </CharString>
        <CharString name="g">
          31 51 callsubr
          hstem
          -37 140 vstem
          19 25 rmoveto
          -59 -29 -42 -29 -43 -39 5 -165 rcurveline
          92 -32 131 -22 94 -3 81 86 49 86 37 165 43 -48 rcurveline
          71 25 124 78 44 33 3 callsubr
          -53 -29 -110 -38 -65 -19 40 90 68 109 51 66 -97 84 rcurveline
          -23 -27 -18 -25 -17 -25 -56 94 rcurveline
          -243 -21 -139 -201 -212 vvcurveto
          140 25 rmoveto
          150 95 116 139 13 vhcurveto
          -8 -51 -13 -53 -23 -49 -62 -81 -62 -26 -66 -19 rrcurveto
          -127 -248 rmoveto
          63 56 95 55 96 39 -29 -88 -36 -53 -37 -32 rrcurveto
          -43 -64 12 11 -45 hvcurveto
          endchar
        </CharString>
        <CharString name="germandbls">
          90 -35 707 hstem
          -87 793 vstem
          31 -29 rmoveto
          59 195 131 261 83 134 51 -17 51 -20 55 -29 -89 -51 -84 -68 -43 -64 32 -48 90 -79 66 -66 -31 -11 -28 -8 -27 -7 -39 23 -37 26 -40 39 -78 -94 rcurveline
          47 -47 44 -34 71 -41 145 31 133 55 113 80 27 callsubr
          -43 -23 -41 -19 -40 -19 -56 53 -58 46 -28 43 43 47 72 40 73 31 -16 128 rcurveline
          -72 49 -97 41 -85 23 -60 -19 -54 -24 -47 -31 -99 -171 -120 -236 -43 -142 rrcurveto
          endchar
        </CharString>
        <CharString name="grave">
          -234 544 315 hstem
          88 236 vstem
          226 544 -53 callsubr
        </CharString>
        <CharString name="grave.cap">
          -234 762 -21 hstem
          101 293 vstem
          322 666 -52 callsubr
        </CharString>
        <CharString name="greater">
          20 79 442 hstem
          36 367 vstem
          326 398 rmoveto
          -27 41 -30 41 -32 41 -96 -54 rcurveline
          37 -53 51 -83 34 -68 -64 -33 -72 -23 -91 -27 40 -101 rcurveline
          104 25 105 31 76 37 42 95 rcurveline
          -24 46 -26 44 -27 41 rrcurveto
          endchar
        </CharString>
        <CharString name="guillemotleft">
          156 531 -20 hstem
          64 615 vstem
          468 139 -41 callsubr
          -288 27 -41 callsubr
          endchar
        </CharString>
        <CharString name="guillemotright">
          192 71 442 hstem
          63 616 vstem
          113 98 -24 callsubr
          338 -114 -24 callsubr
          endchar
        </CharString>
        <CharString name="guilsinglleft">
          -132 98 415 hstem
          64 327 vstem
          180 148 -41 callsubr
          endchar
        </CharString>
        <CharString name="guilsinglright">
          -96 89 415 hstem
          63 328 vstem
          113 89 -24 callsubr
          endchar
        </CharString>
        <CharString name="h">
          40 714 -26 callsubr
          51 100 54 97 56 91 -102 77 rcurveline
          -99 -147 -181 -352 -48 -165 rrcurveto
          endchar
        </CharString>
        <CharString name="hbar">
          40 547 -20 187 -26 callsubr
          25 50 26 49 27 48 2 4 rcurveline
          19 -12 19 -12 19 -13 54 84 rcurveline
          -61 39 10 17 10 17 11 17 rlinecurve
          -102 77 -13 -19 -14 -22 -15 -25 rlinecurve
          -23 11 -22 9 -21 9 -48 -86 rcurveline
          21 -9 22 -10 21 -11 -27 -48 rcurveline
          -85 -160 -92 -194 -32 -109 rrcurveto
          endchar
        </CharString>
        <CharString name="hyphen">
          2 181 243 hstem
          37 424 vstem
          37 310 -62 callsubr
          endchar
        </CharString>
        <CharString name="i">
          -257 543 65 callsubr
          hintmask 01100000
          hintmask 10100000
          243 566 -10 callsubr
          -209 -593 -87 callsubr
          endchar
        </CharString>
        <CharString name="iacute">
          -257 723 -20 hstem
          -81 655 vstem
          -90 callsubr
          419 460 -64 callsubr
        </CharString>
        <CharString name="icircumflex">
          -257 -27 822 hstem
          -81 554 vstem
          -90 callsubr
          204 519 -92 callsubr
        </CharString>
        <CharString name="idieresis">
          -257 75 callsubr
          -63 77 callsubr
          106 32 callsubr
          hintmask 01110000
          -90 callsubr
          210 569 -72 callsubr
          hintmask 10110000
          -83 callsubr
        </CharString>
        <CharString name="igrave">
          -257 -27 886 hstem
          -81 459 vstem
          -90 callsubr
          361 465 -53 callsubr
        </CharString>
        <CharString name="ij">
          74 51 callsubr
          837 162 hstem
          220 162 169 162 vstem
          551 624 rmoveto
          -45 36 -36 45 11 callsubr
          vhcurveto
          -308 -58 -10 callsubr
          -209 -593 rmoveto
          65 23 71 32 64 32 -43 -99 -37 -97 -27 -85 24 callsubr
          27 -26 rcurveline
          39 callsubr
          -21 101 rcurveline
          61 callsubr
          23 callsubr
          -61 -80 -76 -119 -54 -102 -65 -33 -71 -33 -81 -25 -69 callsubr
          endchar
        </CharString>
        <CharString name="itilde">
          -257 45 callsubr
          587 hintmask 10010000
          -90 callsubr
          hintmask 01010000
          401 470 -17 callsubr
        </CharString>
        <CharString name="j">
          -257 51 callsubr
          837 65 callsubr
          hintmask 10110000
          hintmask 11010000
          243 566 -10 callsubr
          -218 -558 -63 callsubr
          endchar
        </CharString>
        <CharString name="jcircumflex">
          -257 51 callsubr
          hstem
          -204 682 vstem
          25 8 -63 callsubr
          103 590 -92 callsubr
        </CharString>
        <CharString name="k">
          -37 529 -48 callsubr
          endchar
        </CharString>
        <CharString name="kcommaaccent">
          -37 51 callsubr
          823 -48 callsubr
          195 -58 -31 callsubr
        </CharString>
        <CharString name="kgreenlandic">
          -37 529 -20 hstem
          -81 660 73 callsubr
          29 95 28 85 37 84 7 -56 16 -63 20 -57 -32 callsubr
          -108 -76 -88 -77 -87 -80 33 67 38 63 51 65 -110 77 rcurveline
          -117 -164 -88 -191 -48 -163 rrcurveto
          endchar
        </CharString>
        <CharString name="l">
          -97 -27 783 hstem
          -63 581 vstem
          61 -27 rmoveto
          162 8 173 35 callsubr
          -133 -88 -151 -31 -134 -19 8 27 13 35 16 39 227 56 143 131 32 255 -169 119 rcurveline
          -194 -139 -167 -344 -51 -185 rrcurveto
          237 232 rmoveto
          59 117 79 126 79 71 -24 -145 -72 -112 -121 -57 rrcurveto
          endchar
        </CharString>
        <CharString name="ldot">
          -124 -27 124 121 165 hstem
          238 166 vstem
          61 -27 42 callsubr
          -131 -87 -151 -40 -105 -8 32 123 127 260 152 181 -102 75 rcurveline
          -159 -186 -153 -303 -43 -159 rrcurveto
          301 213 rmoveto
          -47 36 -36 47 47 36 36 47 45 -36 37 -47 -47 -36 -37 -45 vhcurveto
          endchar
        </CharString>
        <CharString name="less">
          20 40 442 hstem
          111 367 vstem
          188 163 rmoveto
          27 -41 30 -41 32 -41 96 54 rcurveline
          -37 53 -51 83 -34 68 64 33 72 23 91 27 -40 101 rcurveline
          -104 -25 -105 -31 -76 -37 -42 -95 rcurveline
          24 -46 26 -44 27 -41 rrcurveto
          endchar
        </CharString>
        <CharString name="logicalnot">
          20 66 358 hstem
          55 424 vstem
          269 117 rmoveto
          116 -51 29 64 34 85 31 77 rlinecurve
          -4 callsubr
          -46 -114 rcurveline
          59 -15 67 -19 65 -23 75 -27 rcurveline
          -15 -35 -18 -37 -19 -37 rrcurveto
          endchar
        </CharString>
        <CharString name="lslash">
          -124 -27 837 hstem
          -63 593 vstem
          141 673 rmoveto
          43 15 40 10 31 5 77 -40 67 -41 88 -72 43 85 rcurveline
          -89 75 -74 49 -93 51 -55 -12 -57 -24 -64 -39 rrcurveto
          -37 -762 42 callsubr
          -133 -87 -150 -38 -106 -8 32 104 108 203 141 173 -112 76 rcurveline
          -145 -177 -125 -237 -43 -153 rrcurveto
          endchar
        </CharString>
        <CharString name="m">
          328 -27 554 hstem
          -81 1024 73 callsubr
          21 68 27 74 31 72 83 59 62 41 91 43 -16 -72 -58 -111 -72 -95 115 -79 rcurveline
          48 68 41 72 32 72 65 47 60 35 73 36 -16 -68 -50 -78 -42 callsubr
          -65 -31 -85 -29 49 64 34 70 23 95 37 callsubr
          -72 -39 -55 -36 -53 -43 13 50 rcurveline
          -121 95 -69 -37 -65 -44 -61 -50 rlinecurve
          20 37 21 33 -2 callsubr
          endchar
        </CharString>
        <CharString name="macron">
          -234 720 -20 hstem
          61 373 vstem
          222 673 rmoveto
          54 -18 55 -22 56 -25 48 callsubr
          -42 -114 rcurveline
          54 -13 54 -16 53 -18 rrcurveto
          endchar
        </CharString>
        <CharString name="macron.cap">
          -234 730 226 hstem
          142 373 vstem
          142 842 rmoveto
          108 -27 106 -34 112 -51 48 callsubr
          rrcurveto
          endchar
        </CharString>
        <CharString name="minus">
          2 181 243 hstem
          46 424 vstem
          46 310 -62 callsubr
          endchar
        </CharString>
        <CharString name="mu">
          102 540 -20 hstem
          -95 660 vstem
          47 -86 rmoveto
          11 37 12 36 12 35 58 -49 rcurveline
          76 32 33 29 35 32 80 -89 rcurveline
          43 14 89 44 69 40 -28 110 rcurveline
          -51 -23 -52 -20 -35 -9 4 2 rcurveline
          41 92 59 101 53 80 -106 14 callsubr
          -65 -83 -66 -41 -67 -17 52 128 59 107 69 108 -104 79 rcurveline
          -133 -216 -81 -193 -75 -256 108 -80 rcurveline
          11 42 12 40 11 37 rrcurveto
          endchar
        </CharString>
        <CharString name="multiply">
          20 73 424 hstem
          43 442 vstem
          102 126 rmoveto
          36 23 48 27 51 29 28 -49 28 -47 25 -36 108 57 rcurveline
          -25 35 -28 47 -29 51 51 27 49 26 41 19 -53 107 rcurveline
          -41 -19 -52 -26 -53 -27 -23 45 -22 43 -16 39 -108 -51 rcurveline
          17 -39 22 -46 24 -48 -52 -28 -49 -29 -36 -23 rrcurveto
          endchar
        </CharString>
        <CharString name="n">
          40 -27 554 hstem
          -81 736 vstem
          -75 callsubr
          endchar
        </CharString>
        <CharString name="nacute">
          40 723 -20 hstem
          -81 740 vstem
          -75 callsubr
          504 489 -64 callsubr
        </CharString>
        <CharString name="nbspace">
          -227 endchar
        </CharString>
        <CharString name="nine">
          19 215 122 210 -20 hstem
          404 143 vstem
          11 58 rmoveto
          116 -96 rlineto
          317 99 103 228 258 vvcurveto
          -159 122 -201 -27 -136 -127 -32 -195 rlinecurve
          120 -102 rlineto
          -2 18 17 -1 17 hhcurveto
          45 42 8 17 39 hvcurveto
          -56 -79 -93 -60 -157 -43 rrcurveto
          158 280 rmoveto
          34 124 101 76 100 11 -5 -69 -8 -62 -16 -56 rrcurveto
          -19 -56 -55 -6 -60 hhcurveto
          -12 -11 0 1 -12 hvcurveto
          endchar
        </CharString>
        <CharString name="ntilde">
          40 45 callsubr
          736 hintmask 10010000
          -75 callsubr
          hintmask 01010000
          532 499 -17 callsubr
        </CharString>
        <CharString name="numbersign">
          99 533 -20 hstem
          37 561 vstem
          71 139 rmoveto
          103 -45 45 124 27 -11 24 -9 25 -11 rlinecurve
          -15 -39 -16 -39 -16 -44 103 -43 rcurveline
          15 44 15 39 15 39 27 -12 24 -13 25 -12 45 97 rcurveline
          -81 39 12 28 12 28 13 28 rlinecurve
          80 -38 45 96 -27 12 -25 13 -27 12 rlinecurve
          16 32 17 32 19 36 -97 44 rcurveline
          -19 -36 -18 -33 -16 -32 -78 31 rcurveline
          16 32 17 32 19 35 -98 46 rcurveline
          -55 -108 -28 11 -27 9 -28 9 rlinecurve
          -40 -99 25 -8 26 -8 25 -9 rlinecurve
          -38 -84 -79 26 -41 -97 27 -9 25 -7 27 -11 rlinecurve
          143 61 rmoveto
          12 28 12 28 13 28 78 -32 rcurveline
          -38 -83 rlineto
          endchar
        </CharString>
        <CharString name="o">
          -58 callsubr
          endchar
        </CharString>
        <CharString name="oacute">
          -3 536 -20 207 28 callsubr
          765 hintmask 11010000
          hintmask 11100000
          -103 callsubr
          395 430 -64 callsubr
        </CharString>
        <CharString name="ocircumflex">
          -3 536 28 callsubr
          669 -88 callsubr
          185 489 -92 callsubr
        </CharString>
        <CharString name="odieresis">
          -3 75 callsubr
          -152 -20 109 77 callsubr
          -34 134 173 32 callsubr
          hintmask 01111100
          -103 callsubr
          196 539 -72 callsubr
          hintmask 10011100
          -83 callsubr
        </CharString>
        <CharString name="oe">
          241 26 callsubr
          25 28 callsubr
          891 hintmask 11010100
          hintmask 11101000
          -34 92 rmoveto
          142 -119 71 19 59 31 51 39 rlinecurve
          97 -89 67 callsubr
          rlinecurve
          -22 101 -130 -80 -169 -41 -141 -8 rlinecurve
          -5 callsubr
          31 -39 callsubr
          rlineto
          hintmask 11011000
          -52 -17 -52 -28 -51 -44 -109 94 rcurveline
          -18 callsubr
          hintmask 11101000
          -56 -87 -17 -103 -67 vvcurveto
          491 198 41 callsubr
          -357 -181 20 callsubr
        </CharString>
        <CharString name="ograve">
          -58 callsubr
          336 435 -53 callsubr
        </CharString>
        <CharString name="one">
          -113 544 -20 hstem
          22 454 vstem
          22 68 rmoveto
          109 -97 108 216 116 184 121 173 rlinecurve
          -117 123 -119 -40 -83 -36 -67 -39 rlinecurve
          51 -124 48 25 47 23 57 23 rlinecurve
          -100 -137 -88 -137 -83 -157 rrcurveto
          endchar
        </CharString>
        <CharString name="onehalf">
          306 254 92 363 -20 hstem
          25 767 vstem
          92 17 callsubr
          144 298 -29 callsubr
          345 -482 -25 callsubr
        </CharString>
        <CharString name="onequarter">
          315 709 -20 hstem
          25 776 vstem
          169 365 -29 callsubr
          -50 -382 15 callsubr
          387 38 callsubr
          84 -75 rcurveline
          19 43 19 42 23 43 69 -20 rcurveline
          42 59 callsubr
          -76 43 callsubr
          5 43 51 43 41 52 43 -76 65 rcurveline
          -71 -55 -59 -58 -56 -80 rrcurveto
          endchar
        </CharString>
        <CharString name="onesuperior">
          -254 709 -20 hstem
          84 301 vstem
          178 365 -29 callsubr
          endchar
        </CharString>
        <CharString name="ordfeminine">
          23 705 -20 31 -20 hstemhm
          103 112 hintmask 01100000
          198 368 rmoveto
          56 17 44 24 35 25 60 -67 rcurveline
          49 16 125 69 30 22 -17 84 rcurveline
          -37 -21 -78 -33 -43 -13 rrcurveto
          hintmask 10100000
          32 70 57 91 39 53 rrcurveto
          hintmask 01100000
          -74 59 -16 -19 -13 -14 -11 -15 rlinecurve
          -49 75 rlineto
          -184 -16 -100 -159 -161 vvcurveto
          112 23 rmoveto
          hintmask 10100000
          3 101 52 81 117 24 rrcurveto
          hintmask 01100000
          -21 -111 -38 -65 -113 -30 rrcurveto
          endchar
        </CharString>
        <CharString name="ordmasculine">
          -70 368 423 hstemhm
          121 114 -114 402 hintmask 10100000
          229 368 rmoveto
          82 15 65 33 48 51 55 60 32 80 12 81 -123 103 rcurveline
          hintmask 11000000
          -84 -13 -87 -47 -51 -80 rrcurveto
          -39 -60 -18 -84 -50 vvcurveto
          114 23 rmoveto
          3 39 12 43 24 35 29 46 56 44 51 3 rrcurveto
          -49 -39 -67 -26 -32 vhcurveto
          -31 -36 -40 -17 -39 -9 rrcurveto
          endchar
        </CharString>
        <CharString name="oslash">
          -3 536 -20 hstemhm
          -77 690 -647 134 hintmask 11000000
          -35 25 rmoveto
          -42 -47 64 -55 77 87 44 -37 -86 callsubr
          -46 39 rcurveline
          11 13 10 13 10 13 13 17 14 16 13 15 -66 54 rcurveline
          -11 -15 -13 -16 -13 -16 -32 -39 rcurveline
          -49 42 rlineto
          hintmask 10100000
          -40 callsubr
          33 -28 rlineto
          hintmask 11000000
          -12 -13 -11 -13 -11 -13 rrcurveto
          hintmask 10100000
          135 84 20 callsubr
        </CharString>
        <CharString name="otilde">
          -3 536 -20 124 68 callsubr
          -34 134 -134 716 hintmask 10010000
          hintmask 11100000
          -103 callsubr
          396 440 -28 callsubr
          -50 11 -57 89 -64 19 rlinecurve
          9 callsubr
          36 -8 46 -52 42 -34 rlinecurve
          endchar
        </CharString>
        <CharString name="p">
          21 -263 -21 821 -20 hstem
          -194 830 vstem
          -23 -114 rmoveto
          22 57 24 58 25 57 93 -85 rcurveline
          66 callsubr
          3 callsubr
          -68 -32 -64 -25 -73 -24 57 callsubr
          -76 -43 -51 -34 -48 -43 19 35 15 32 19 32 -101 74 rcurveline
          -137 -231 -125 -265 -83 -248 114 -77 rcurveline
          16 56 19 57 22 57 rrcurveto
          83 199 rmoveto
          42 89 88 67 65 44 96 51 rlinecurve
          -14 -97 -62 -90 -57 -27 -27 -11 -63 -15 -68 -11 rrcurveto
          endchar
        </CharString>
        <CharString name="paragraph">
          179 607 143 hstem
          94 689 vstem
          144 -83 rmoveto
          114 -102 116 268 135 228 141 213 rlinecurve
          41 -17 43 -18 49 -23 -4 138 rcurveline
          110 -182 -124 36 -190 hhcurveto
          -15 -16 -1 -2 -18 hvcurveto
          -140 -153 41 -129 74 -126 101 -99 rlinecurve
          -61 -108 -56 -107 -49 -108 rrcurveto
          242 451 rmoveto
          -64 73 -45 77 -31 88 rrcurveto
          1 12 11 0 12 hhcurveto
          83 71 -11 -23 79 hvcurveto
          -44 -68 -41 -68 -43 -69 rrcurveto
          endchar
        </CharString>
        <CharString name="parenleft">
          -158 -173 929 hstem
          58 108 vstem
          69 170 rmoveto
          -12 -83 -4 -90 5 -97 108 -73 rcurveline
          -5 423 92 252 328 181 -73 73 rcurveline
          -272 -141 -131 -196 -36 -249 rrcurveto
          endchar
        </CharString>
        <CharString name="parenright">
          -158 711 -20 hstem
          216 108 vstem
          313 368 rmoveto
          12 83 4 90 -5 97 -108 73 rcurveline
          5 -423 -92 -252 -328 -181 73 -73 rcurveline
          272 141 131 196 36 249 rrcurveto
          endchar
        </CharString>
        <CharString name="percent">
          199 -10 69 124 69 152 69 73 -20 71 69 hstemhm
          101 69 123 70 8 69 123 70 hintmask 1111111010000000
          181 414 rmoveto
          -7 16 17 -3 19 hhcurveto
          49 callsubr
          -55 32 -44 48 -22 hvcurveto
          -141 -329 rmoveto
          63 -63 223 225 153 126 256 173 rlinecurve
          -54 68 -258 -176 -153 -128 -230 -225 rlinecurve
          hintmask 1111111110000000
          192 388 rmoveto
          -35 -27 27 35 46 callsubr
          hvcurveto
          139 -352 rmoveto
          -72 57 -59 75 49 callsubr
          vhcurveto
          87 -44 rmoveto
          -12 12 -6 15 17 vvcurveto
          46 callsubr
          -17 -15 6 12 -12 vhcurveto
          endchar
        </CharString>
        <CharString name="period">
          -223 -83 186 hstem
          0 186 vstem
          10 vmoveto
          -54 callsubr
        </CharString>
        <CharString name="periodcentered">
          -209 214 186 hstem
          58 186 vstem
          58 307 rmoveto
          -54 callsubr
        </CharString>
        <CharString name="plus">
          20 100 418 hstem
          58 423 vstem
          148 140 -30 callsubr
          endchar
        </CharString>
        <CharString name="plusminus">
          20 -72 644 hstem
          -24 527 vstem
          170 194 -30 callsubr
          -194 -137 -62 callsubr
          endchar
        </CharString>
        <CharString name="q">
          27 -263 -21 814 -20 hstem
          54 callsubr
          vstem
          53 callsubr
          33 9 28 10 24 11 -31 -69 -27 -69 -25 -72 114 -77 rcurveline
          35 111 37 92 40 92 31 -34 -107 callsubr
          endchar
        </CharString>
        <CharString name="question">
          1 -83 186 471 138 hstem
          9 186 vstem
          117 222 rmoveto
          118 -87 73 166 251 0 28 261 rlinecurve
          -90 139 rlineto
          7 -31 -34 4 -35 hhcurveto
          -93 -103 -30 -39 -85 hvcurveto
          40 -126 rlineto
          31 77 87 26 76 hhcurveto
          15 14 -1 -2 14 hvcurveto
          -28 -173 -221 -11 -73 -165 rrcurveto
          -108 -212 rmoveto
          -54 callsubr
        </CharString>
        <CharString name="questiondown">
          1 -61 138 471 186 hstem
          384 186 vstem
          462 429 rmoveto
          -118 87 -73 -166 -251 0 -28 -261 rlinecurve
          90 -139 rlineto
          -7 31 34 -4 35 hhcurveto
          93 103 30 39 85 hvcurveto
          -40 126 rlineto
          -31 -77 -87 -26 -76 hhcurveto
          -15 -14 1 2 -14 hvcurveto
          28 173 221 11 73 165 rrcurveto
          108 212 rmoveto
          51 -41 42 -52 -52 -41 -42 -51 -52 41 -41 52 52 41 41 52 vhcurveto
          endchar
        </CharString>
        <CharString name="quotedbl">
          -86 726 -20 hstem
          66 508 vstem
          172 407 6 callsubr
          349 -58 6 callsubr
          endchar
        </CharString>
        <CharString name="quotedblbase">
          7 -217 319 hstem
          -84 515 vstem
          27 31 2 callsubr
          207 -71 2 callsubr
          endchar
        </CharString>
        <CharString name="quotedblleft">
          -62 411 319 hstem
          81 515 vstem
          206 411 10 callsubr
          368 -79 10 callsubr
          endchar
        </CharString>
        <CharString name="quotedblright">
          -57 413 319 hstem
          71 515 vstem
          167 413 7 callsubr
          339 -60 7 callsubr
          endchar
        </CharString>
        <CharString name="quoteleft">
          -305 411 319 hstem
          81 272 vstem
          206 411 10 callsubr
          endchar
        </CharString>
        <CharString name="quoteright">
          -300 413 319 hstem
          71 272 vstem
          167 413 7 callsubr
          endchar
        </CharString>
        <CharString name="quotesinglbase">
          -236 -217 319 hstem
          -84 272 vstem
          27 31 2 callsubr
          endchar
        </CharString>
        <CharString name="quotesingle">
          -329 726 -20 hstem
          66 265 vstem
          172 407 6 callsubr
          endchar
        </CharString>
        <CharString name="r">
          -5 -27 610 hstem
          -68 679 -91 callsubr
          endchar
        </CharString>
        <CharString name="rcaron">
          -5 -27 884 hstem
          -68 692 -91 callsubr
          461 368 5 callsubr
        </CharString>
        <CharString name="rcommaaccent">
          -5 -248 831 hstem
          -96 707 -91 callsubr
          95 -149 -31 callsubr
        </CharString>
        <CharString name="registered">
          614 -172 111 537 101 81 -59 callsubr
          176 26 rmoveto
          93 -85 31 73 30 62 35 60 rlinecurve
          112 -203 115 68 -89 129 96 39 81 51 51 71 rlinecurve
          -57 129 -105 47 -102 15 -119 5 rlinecurve
          -35 -101 rlineto
          23 26 -3 -4 28 hvcurveto
          -90 -109 -58 -98 -66 -146 rrcurveto
          223 168 rmoveto
          29 44 30 41 33 43 -62 51 rcurveline
          64 -12 65 -19 48 -23 -50 -48 -85 -48 -72 -29 rrcurveto
          endchar
        </CharString>
        <CharString name="ring">
          -234 555 70 94 70 hstem
          93 69 94 71 vstem
          164 564 -50 callsubr
        </CharString>
        <CharString name="ring.cap">
          -234 636 70 94 70 hstem
          154 69 95 70 vstem
          225 645 -9 callsubr
        </CharString>
        <CharString name="s">
          -8 544 -20 hstem
          -98 705 vstem
          9 56 rmoveto
          35 -28 36 -27 55 -36 139 19 222 68 111 79 3 callsubr
          -56 -29 -65 -26 -67 -23 -64 58 -74 54 -31 47 46 57 72 47 35 13 -8 -31 -27 -53 -21 -31 107 -80 rcurveline
          24 43 40 72 16 65 -160 129 rcurveline
          -100 -29 -144 -107 -53 -96 35 -51 97 -79 70 -70 -37 -9 -31 -7 -23 -3 -69 45 -29 27 -64 67 -103 -73 rcurveline
          43 -44 31 -30 33 -29 rrcurveto
          endchar
        </CharString>
        <CharString name="section">
          117 -211 989 hstem
          -14 654 vstem
          70 -69 rmoveto
          -27 -8 -28 -7 -29 -6 72 -121 rcurveline
          164 36 133 76 69 112 -27 78 rcurveline
          81 57 67 66 53 85 -38 120 rcurveline
          -83 51 -38 19 -57 35 52 72 87 53 119 19 -81 110 rcurveline
          -147 -36 -136 -90 -88 -153 14 -13 19 -14 23 -15 -88 -40 -104 -95 -51 -123 50 -45 126 -64 85 -56 -39 -47 -72 -32 -81 -24 rrcurveto
          119 308 rmoveto
          39 67 65 60 64 24 36 -20 34 -21 31 -20 -43 -65 -58 -55 -65 -41 -36 25 -32 25 -35 21 rrcurveto
          endchar
        </CharString>
        <CharString name="semicolon">
          -141 282 186 hstem
          175 186 vstem
          175 375 rmoveto
          -76 callsubr
          -141 -346 19 callsubr
        </CharString>
        <CharString name="seven">
          -35 529 136 hstem
          -9 591 vstem
          -9 87 rmoveto
          111 -116 155 219 117 134 208 165 rlinecurve
          -59 124 -127 32 -107 15 -140 5 rlinecurve
          -64 -136 111 -4 99 -11 100 -19 rlinecurve
          -166 -134 -115 -105 -123 -169 rrcurveto
          endchar
        </CharString>
        <CharString name="six">
          21 311 114 hstemhm
          -5 144 -144 548 hintmask 10100000
          hintmask 11000000
          -5 102 rmoveto
          161 -130 199 27 136 128 32 194 rlinecurve
          -120 101 rlineto
          1 -17 -13 2 -17 hhcurveto
          -55 -41 -9 -15 -37 hvcurveto
          57 84 96 63 167 45 -114 95 rcurveline
          -318 -99 -100 -185 -16 -302 rrcurveto
          144 -2 rmoveto
          4 67 8 59 16 56 rrcurveto
          19 56 55 10 60 hhcurveto
          12 11 0 -1 12 hvcurveto
          -34 -129 -98 -70 -102 -11 rrcurveto
          endchar
        </CharString>
        <CharString name="slash">
          -26 -5 676 hstem
          -19 678 vstem
          48 17 callsubr
          endchar
        </CharString>
        <CharString name="space">
          -227 endchar
        </CharString>
        <CharString name="sterling">
          70 544 -20 hstem
          -48 672 vstem
          -48 91 rmoveto
          161 -70 106 -35 185 -27 39 123 rcurveline
          -99 17 -75 18 -72 23 25 51 23 47 21 39 44 -19 45 -18 44 -15 37 92 rcurveline
          -41 15 -40 15 -40 17 2 3 rcurveline
          38 62 78 89 63 48 -11 -43 -22 -55 -27 -41 117 -63 rcurveline
          32 55 24 69 15 56 -197 126 rcurveline
          -88 -45 -68 -72 -48 -73 -12 -19 -12 -18 -11 -19 -61 33 rcurveline
          -48 -87 58 -32 -23 -39 -19 -38 -20 -43 rlinecurve
          92 -68 -51 17 -50 20 -57 25 rlinecurve
          endchar
        </CharString>
        <CharString name="t">
          -142 -27 659 -302 112 hstemhm
          -63 536 hintmask 10100000
          61 -27 rmoveto
          117 8 173 35 callsubr
          -124 -71 -126 -30 -108 -19 rrcurveto
          hintmask 01100000
          20 65 31 74 40 79 81 3 83 8 60 15 -23 108 rcurveline
          -39 -11 -47 -6 -51 -5 22 36 24 36 26 36 -89 82 rcurveline
          -133 -167 -109 -199 -53 -178 rrcurveto
          endchar
        </CharString>
        <CharString name="thorn">
          22 -263 -21 998 -20 hstem
          -194 831 vstem
          16 -8 rmoveto
          29 70 97 -89 66 callsubr
          rlinecurve
          -21 101 -68 -32 -65 -25 -72 -24 rlinecurve
          57 callsubr
          -84 -47 -54 -39 -53 -47 43 75 48 83 88 128 -104 77 rcurveline
          -191 -288 -150 -318 -112 -315 115 -77 rcurveline
          40 122 26 81 29 73 rrcurveto
          38 91 rmoveto
          37 82 96 72 64 46 101 53 rlinecurve
          -14 -97 -62 -90 -57 -27 -26 -13 -70 -15 -69 -11 rrcurveto
          endchar
        </CharString>
        <CharString name="three">
          10 -17 137 420 124 hstem
          -57 641 vstem
          -40 12 rmoveto
          -19 60 59 -10 57 hhcurveto
          125 115 45 99 91 hvcurveto
          -46 126 -35 24 -38 21 -39 19 rlinecurve
          91 16 82 32 102 67 -58 165 rcurveline
          40 -72 -77 27 -83 hhcurveto
          -24 -26 -1 -3 -23 hvcurveto
          -61 -123 rlineto
          1 25 26 2 27 hhcurveto
          85 62 -17 -35 64 hvcurveto
          -49 -84 -104 -27 -131 hhcurveto
          -57 -115 74 -21 113 -53 58 -40 rlinecurve
          -47 -55 -69 -16 -72 hhcurveto
          -64 -62 13 15 -53 hvcurveto
          endchar
        </CharString>
        <CharString name="threequarters">
          437 359 101 244 92 hstem
          63 859 vstem
          83 -47 callsubr
          79 -409 15 callsubr
          392 38 callsubr
          83 -75 rcurveline
          19 43 19 43 23 43 70 -21 rcurveline
          41 59 callsubr
          -75 43 callsubr
          4 43 51 43 42 52 43 -77 65 rcurveline
          -71 -55 -58 -58 -57 -80 rrcurveto
          endchar
        </CharString>
        <CharString name="threesuperior">
          -152 359 101 244 92 hstem
          45 423 vstem
          65 -47 callsubr
          endchar
        </CharString>
        <CharString name="tilde">
          -234 525 115 -115 231 -116 68 callsubr
          88 401 hintmask 01010000
          hintmask 10010000
          303 549 -34 callsubr
          hintmask 10010000
          29 callsubr
        </CharString>
        <CharString name="tilde.cap">
          -234 661 115 -115 232 -117 68 callsubr
          145 400 hintmask 01010000
          hintmask 10010000
          358 685 -35 callsubr
          hintmask 10010000
          30 callsubr
        </CharString>
        <CharString name="trademark">
          379 305 461 hstem
          104 839 vstem
          186 344 rmoveto
          45 112 34 66 61 82 -56 47 rcurveline
          57 -15 55 -19 49 -17 43 98 rcurveline
          -92 31 -96 25 -88 12 -48 -87 rcurveline
          29 -5 31 -7 31 -8 -45 -63 -49 -71 -43 -107 rrcurveto
          287 -1 rmoveto
          78 -72 49 105 42 76 49 75 rlinecurve
          -15 -60 -12 -62 -15 -88 73 -62 rcurveline
          75 91 48 61 54 70 -19 -55 -22 -53 -33 -72 81 -66 rcurveline
          61 142 21 65 37 131 -99 84 rcurveline
          -64 -93 -50 -66 -59 -69 11 56 12 49 20 64 -102 90 rcurveline
          -87 -103 -67 -102 -67 -136 rrcurveto
          endchar
        </CharString>
        <CharString name="two">
          18 540 124 hstem
          -45 634 vstem
          10 47 rmoveto
          97 -38 128 -20 131 -16 58 126 rcurveline
          -145 16 -99 18 -81 28 161 113 201 -38 128 208 -56 155 rcurveline
          37 -56 -100 28 -78 hhcurveto
          -28 -38 -3 -7 -17 hvcurveto
          -59 -121 rlineto
          3 18 49 4 26 hhcurveto
          93 53 -16 -29 56 hvcurveto
          -104 -124 -244 -4 -149 -141 rrcurveto
          endchar
        </CharString>
        <CharString name="twosuperior">
          -155 704 92 hstem
          64 404 vstem
          96 417 -25 callsubr
        </CharString>
        <CharString name="u">
          -85 callsubr
          endchar
        </CharString>
        <CharString name="uacute">
          11 540 -20 203 -93 callsubr
          434 451 -64 callsubr
        </CharString>
        <CharString name="ucircumflex">
          -85 callsubr
          306 510 -92 callsubr
        </CharString>
        <CharString name="udieresis">
          11 529 36 callsubr
          230 32 callsubr
          hintmask 01111000
          -101 callsubr
          303 560 -72 callsubr
          hintmask 10011000
          -83 callsubr
        </CharString>
        <CharString name="ugrave">
          -85 callsubr
          384 456 -53 callsubr
        </CharString>
        <CharString name="underscore">
          90 -200 94 hstem
          -91 717 vstem
          -91 -106 rmoveto
          -94 717 94 vlineto
          endchar
        </CharString>
        <CharString name="uni0001">
          endchar
        </CharString>
        <CharString name="uni0002">
          endchar
        </CharString>
        <CharString name="uni0003">
          endchar
        </CharString>
        <CharString name="uni0004">
          endchar
        </CharString>
        <CharString name="uni0005">
          endchar
        </CharString>
        <CharString name="uni0006">
          endchar
        </CharString>
        <CharString name="uni0007">
          endchar
        </CharString>
        <CharString name="uni0008">
          endchar
        </CharString>
        <CharString name="uni0015">
          endchar
        </CharString>
        <CharString name="uni0016">
          endchar
        </CharString>
        <CharString name="uni0017">
          endchar
        </CharString>
        <CharString name="uni0018">
          endchar
        </CharString>
        <CharString name="uni0019">
          endchar
        </CharString>
        <CharString name="uni00AD">
          244 endchar
        </CharString>
        <CharString name="v">
          8 535 -20 hstem
          -47 671 vstem
          86 -27 rmoveto
          72 33 61 45 59 52 61 -72 rcurveline
          1 callsubr
          34 105 50 callsubr
          -101 -183 -49 -128 -24 -136 rrcurveto
          endchar
        </CharString>
        <CharString name="w">
          323 535 -20 hstem
          -41 980 vstem
          84 -18 rmoveto
          76 36 64 46 56 55 -9 -49 rcurveline
          130 -97 71 33 63 44 57 52 rlinecurve
          -13 10 51 -58 1 hhcurveto
          1 callsubr
          43 96 50 callsubr
          -103 -180 -151 -180 -88 -40 19 86 34 105 50 callsubr
          -101 -184 -46 -126 -27 -137 rrcurveto
          endchar
        </CharString>
        <CharString name="x">
          -8 534 -20 hstem
          -68 675 vstem
          -16 72 rmoveto
          18 -27 20 -27 22 -27 49 51 37 41 45 43 23 -49 26 -49 32 -55 99 35 156 69 96 54 3 callsubr
          -97 -43 -57 -20 -110 -32 -15 27 -12 27 -11 27 96 81 86 71 99 71 -113 77 rcurveline
          -84 -57 -61 -56 -67 -63 -19 60 -11 64 -9 68 -125 -58 rcurveline
          9 -80 15 -71 25 -76 -29 -23 -20 -18 -33 -35 -15 19 -11 19 -12 21 -73 -74 rcurveline
          17 -29 17 -29 18 -28 rrcurveto
          endchar
        </CharString>
        <CharString name="y">
          17 51 callsubr
          834 60 callsubr
          hintmask 11100000
          -68 callsubr
          rrcurveto
          hintmask 11010000
          -56 callsubr
          endchar
        </CharString>
        <CharString name="yacute">
          17 51 callsubr
          834 -20 203 60 callsubr
          hintmask 11110000
          -68 callsubr
          rrcurveto
          hintmask 11101000
          -56 callsubr
          430 684 -64 callsubr
        </CharString>
        <CharString name="ydieresis">
          17 51 callsubr
          823 36 callsubr
          -55 140 141 32 callsubr
          hintmask 10111110
          -68 callsubr
          -56 callsubr
          294 793 -72 callsubr
          hintmask 11001110
          -83 callsubr
        </CharString>
        <CharString name="yen">
          70 -42 724 hstem
          175 130 vstem
          56 56 rmoveto
          123 -98 12 36 12 31 12 28 rlinecurve
          28 -15 27 -13 21 -9 37 63 rcurveline
          -24 11 -28 14 -31 19 20 40 rcurveline
          36 -21 31 -15 25 -10 37 64 rcurveline
          -25 11 -27 15 -31 17 149 90 82 69 109 112 -100 91 rcurveline
          -104 -107 -65 -56 -77 -56 5 68 10 70 17 67 -115 110 rcurveline
          -36 -131 -8 -127 -3 -117 -27 19 -25 15 -19 15 -43 -61 rcurveline
          23 -17 27 -20 32 -21 -9 -15 -7 -14 -5 -11 -34 21 -28 20 -22 17 -43 -62 rcurveline
          25 -19 31 -22 37 -24 rrcurveto
          endchar
        </CharString>
        <CharString name="z">
          -79 -27 144 273 132 hstem
          -86 622 vstem
          34 -27 rmoveto
          161 8 219 73 122 77 3 callsubr
          -141 -71 -167 -35 -151 -9 192 104 97 61 128 91 -54 104 rcurveline
          -55 -37 rlineto
          47 -68 -62 35 -80 hhcurveto
          -17 -16 -1 -4 -19 hvcurveto
          -80 -135 rlineto
          5 45 53 3 28 hhcurveto
          49 27 -5 -12 32 hvcurveto
          -89 -53 -95 -52 -125 -67 -12 -27 -12 -46 -9 -44 rrcurveto
          endchar
        </CharString>
        <CharString name="zero">
          75 -36 710 hstem
          23 142 268 143 vstem
          46 61 rmoveto
          171 -97 rlineto
          245 89 114 148 221 vvcurveto
          49 -5 51 -11 53 vhcurveto
          -171 99 rlineto
          -232 -67 -134 -169 -218 vvcurveto
          -49 8 -53 15 -57 vhcurveto
          127 42 rmoveto
          -7 31 -1 30 28 vvcurveto
          175 97 121 160 51 vhcurveto
          7 -37 4 -34 -32 vvcurveto
          -171 -97 -106 -163 -56 vhcurveto
          endchar
        </CharString>
</ttFont>
